M48
;DRILL file {KiCad 4.0.2+dfsg1-stable} date Sex 14 Jul 2017 10:58:00 BRT
;FORMAT={-:-/ absolute / metric / decimal}
FMAT,2
METRIC,TZ
T1C0.800
T2C1.000
T3C1.200
T4C1.500
%
G90
G05
M71
T1
X13.716Y135.89
X13.716Y133.35
X13.716Y36.068
X13.716Y28.448
X16.256Y36.068
X16.256Y28.448
X18.796Y36.068
X18.796Y28.448
X23.114Y135.89
X23.114Y133.35
X31.242Y107.148
X31.242Y104.648
X31.242Y80.986
X31.242Y78.486
X31.242Y62.952
X31.242Y60.452
X31.242Y54.61
X31.242Y46.99
X31.242Y36.068
X31.242Y28.448
X33.782Y54.61
X33.782Y46.99
X33.782Y36.068
X33.782Y28.448
X36.322Y54.61
X36.322Y46.99
X36.322Y36.068
X36.322Y28.448
X38.1Y62.952
X38.1Y60.452
X38.862Y54.61
X38.862Y46.99
X38.862Y10.922
X41.402Y54.61
X41.402Y46.99
X41.402Y10.922
X43.942Y54.61
X43.942Y46.99
X43.942Y10.922
X46.482Y54.61
X46.482Y46.99
X50.8Y14.478
X50.8Y11.938
X68.58Y37.298
X68.58Y34.798
X74.93Y37.298
X74.93Y34.798
X74.93Y26.924
X80.01Y39.624
X80.01Y32.004
X82.55Y39.624
X82.55Y32.004
X82.55Y26.924
X85.09Y39.624
X85.09Y32.004
X87.63Y39.624
X87.63Y32.004
X90.17Y39.624
X90.17Y32.004
X92.71Y51.562
X92.71Y44.704
X92.71Y39.624
X92.71Y32.004
X95.21Y51.562
X95.21Y44.704
X95.25Y39.624
X95.25Y32.004
X95.25Y26.924
X97.79Y39.624
X97.79Y32.004
X100.33Y39.624
X100.33Y32.004
X102.87Y39.624
X102.87Y32.004
X102.87Y26.924
X108.458Y36.576
X108.458Y34.076
X114.808Y36.536
X114.808Y34.036
T2
X13.716Y113.03
X13.716Y88.646
X13.716Y54.61
X13.716Y44.45
X13.716Y22.86
X18.796Y54.61
X18.796Y44.45
X19.304Y122.682
X21.844Y122.682
X23.876Y113.03
X23.876Y88.646
X23.876Y22.86
X24.384Y122.682
X31.242Y99.568
X31.242Y94.488
X31.242Y73.406
X31.242Y68.326
X31.242Y22.86
X38.862Y16.51
X41.402Y43.688
X41.402Y33.528
X41.402Y22.86
X41.402Y16.51
X43.942Y16.51
X57.912Y74.168
X57.912Y64.008
X62.992Y74.168
X62.992Y64.008
X68.072Y122.682
X68.072Y112.522
X68.072Y74.168
X68.072Y64.008
X75.438Y75.692
X85.598Y75.692
X87.63Y23.876
X87.63Y13.716
X89.408Y75.692
X99.568Y75.692
X100.33Y21.844
X100.33Y16.764
X106.934Y122.682
X106.934Y112.522
X106.934Y74.168
X106.934Y64.008
X110.49Y21.844
X110.49Y16.764
X112.014Y74.168
X112.014Y64.008
X117.094Y74.168
X117.094Y64.008
T3
X23.876Y104.648
X23.876Y102.108
X23.876Y99.568
X23.876Y78.486
X23.876Y75.946
X23.876Y73.406
X32.512Y135.636
X37.592Y135.636
X45.466Y135.636
X50.546Y135.636
X75.438Y117.602
X75.438Y115.062
X75.438Y112.522
X75.438Y87.63
X75.438Y85.09
X75.438Y82.55
X80.01Y68.326
X80.01Y63.326
X84.836Y135.636
X89.916Y135.636
X95.25Y68.199
X95.25Y63.199
X99.568Y117.602
X99.568Y115.062
X99.568Y112.522
X99.568Y87.63
X99.568Y85.09
X99.568Y82.55
T4
X32.512Y124.46
X37.592Y124.46
X45.466Y124.46
X50.546Y124.46
X84.836Y124.46
X89.916Y124.46
T0
M30
