G04 #@! TF.FileFunction,Copper,L2,Bot,Signal*
%FSLAX46Y46*%
G04 Gerber Fmt 4.6, Leading zero omitted, Abs format (unit mm)*
G04 Created by KiCad (PCBNEW 4.0.2+dfsg1-stable) date Sex 21 Jul 2017 02:20:20 BRT*
%MOMM*%
G01*
G04 APERTURE LIST*
%ADD10C,0.100000*%
%ADD11C,1.700000*%
%ADD12C,1.500000*%
%ADD13C,1.998980*%
%ADD14O,1.600000X1.600000*%
%ADD15O,1.700000X1.700000*%
%ADD16C,1.000000*%
%ADD17C,0.254000*%
G04 APERTURE END LIST*
D10*
D11*
X20828000Y11176000D03*
X20828000Y13716000D03*
X20828000Y16256000D03*
X20828000Y23876000D03*
X20828000Y21336000D03*
X20828000Y18796000D03*
X20828000Y28956000D03*
X20828000Y31496000D03*
X20828000Y34036000D03*
X20828000Y39116000D03*
X20828000Y41656000D03*
X69088000Y11176000D03*
X69088000Y13716000D03*
X69088000Y16256000D03*
X69088000Y18796000D03*
X69088000Y21336000D03*
X69088000Y23876000D03*
X69088000Y26416000D03*
X69088000Y28956000D03*
X69088000Y33020000D03*
X69088000Y35560000D03*
X69088000Y38100000D03*
X69088000Y40640000D03*
X69088000Y43180000D03*
X69088000Y45720000D03*
X69088000Y48260000D03*
X69088000Y50800000D03*
X20828000Y36576000D03*
D12*
X66294000Y56896000D03*
X61394000Y56896000D03*
D11*
X21590000Y56896000D03*
X24090000Y56896000D03*
X51054000Y56896000D03*
X53554000Y56896000D03*
X21590000Y63246000D03*
X24090000Y63246000D03*
X51054000Y63246000D03*
X53554000Y63246000D03*
X39878000Y48260000D03*
X37378000Y48260000D03*
X62992000Y48260000D03*
X65492000Y48260000D03*
X33274000Y48260000D03*
X30774000Y48260000D03*
X58928000Y48260000D03*
X56428000Y48260000D03*
X58674000Y11684000D03*
X61214000Y11684000D03*
X63754000Y11684000D03*
X26162000Y11684000D03*
X28702000Y11684000D03*
X31242000Y11684000D03*
X37084000Y11684000D03*
X39624000Y11684000D03*
X42164000Y11684000D03*
X48006000Y11684000D03*
X50546000Y11684000D03*
X53086000Y11684000D03*
D13*
X29718000Y63246000D03*
X39878000Y63246000D03*
X58928000Y63246000D03*
X69088000Y63246000D03*
D11*
X33020000Y68326000D03*
X25400000Y83566000D03*
X33020000Y70866000D03*
X25400000Y81026000D03*
X33020000Y73406000D03*
X25400000Y78486000D03*
X33020000Y75946000D03*
X25400000Y75946000D03*
D14*
X33020000Y78486000D03*
D11*
X25400000Y73406000D03*
X33020000Y81026000D03*
X25400000Y70866000D03*
X33020000Y83566000D03*
X25400000Y68326000D03*
X36830000Y68326000D03*
X36830000Y70866000D03*
X36830000Y73406000D03*
X36830000Y75946000D03*
X36830000Y78486000D03*
X36830000Y81026000D03*
X36830000Y83566000D03*
X21590000Y83566000D03*
X21590000Y81026000D03*
X21590000Y78486000D03*
X21590000Y75946000D03*
X21590000Y73406000D03*
X21590000Y70866000D03*
X21590000Y68326000D03*
X62484000Y68326000D03*
X54864000Y83566000D03*
X62484000Y70866000D03*
X54864000Y81026000D03*
X62484000Y73406000D03*
X54864000Y78486000D03*
X62484000Y75946000D03*
X54864000Y75946000D03*
D14*
X62484000Y78486000D03*
D11*
X54864000Y73406000D03*
X62484000Y81026000D03*
X54864000Y70866000D03*
X62484000Y83566000D03*
X54864000Y68326000D03*
X66294000Y68326000D03*
X66294000Y70866000D03*
X66294000Y73406000D03*
X66294000Y75946000D03*
X66294000Y78486000D03*
X66294000Y81026000D03*
X66294000Y83566000D03*
X51054000Y83566000D03*
X51054000Y81026000D03*
X51054000Y78486000D03*
X51054000Y75946000D03*
X51054000Y73406000D03*
X51054000Y70866000D03*
X51054000Y68326000D03*
D12*
X37338000Y56896000D03*
X32438000Y56896000D03*
D13*
X69850000Y75946000D03*
X69850000Y86106000D03*
X48260000Y39116000D03*
X58420000Y39116000D03*
X40386000Y75946000D03*
X40386000Y86106000D03*
X31496000Y39116000D03*
X31496000Y28956000D03*
X28702000Y28956000D03*
X28702000Y39116000D03*
X25908000Y28956000D03*
X25908000Y39116000D03*
X45466000Y28956000D03*
X45466000Y39116000D03*
X42672000Y28956000D03*
X42672000Y39116000D03*
D11*
X63754000Y16256000D03*
D15*
X61214000Y16256000D03*
X58674000Y16256000D03*
D11*
X53086000Y16256000D03*
D15*
X50546000Y16256000D03*
X48006000Y16256000D03*
D11*
X42164000Y16256000D03*
D15*
X39624000Y16256000D03*
X37084000Y16256000D03*
D11*
X31242000Y16256000D03*
D15*
X28702000Y16256000D03*
X26162000Y16256000D03*
D11*
X15748000Y36576000D03*
D15*
X15748000Y34036000D03*
X15748000Y31496000D03*
D16*
X20828000Y36576000D02*
X15748000Y36576000D01*
X51054000Y67056000D02*
X52324000Y68326000D01*
X52324000Y68326000D02*
X52578000Y68326000D01*
X21590000Y67056000D02*
X22860000Y68326000D01*
X22606000Y68072000D02*
X22606000Y68326000D01*
X22860000Y68326000D02*
X22606000Y68072000D01*
X35560000Y36576000D02*
X34544000Y37592000D01*
X33528000Y36576000D02*
X34544000Y37592000D01*
X34290000Y37338000D02*
X34544000Y37338000D01*
X34544000Y37592000D02*
X34290000Y37338000D01*
X21590000Y56896000D02*
X21590000Y53848000D01*
X21590000Y53848000D02*
X34544000Y40894000D01*
X34544000Y40894000D02*
X34544000Y37338000D01*
X34544000Y37338000D02*
X34544000Y36576000D01*
X20828000Y36576000D02*
X33528000Y36576000D01*
X33528000Y36576000D02*
X34544000Y36576000D01*
X34544000Y36576000D02*
X35560000Y36576000D01*
X35560000Y36576000D02*
X49530000Y36576000D01*
X51054000Y38100000D02*
X51054000Y56896000D01*
X49530000Y36576000D02*
X51054000Y38100000D01*
X21590000Y63246000D02*
X21590000Y56896000D01*
X21590000Y68326000D02*
X21590000Y67056000D01*
X21590000Y67056000D02*
X21590000Y63246000D01*
X51054000Y63246000D02*
X51054000Y56896000D01*
X51054000Y68326000D02*
X51054000Y67056000D01*
X51054000Y67056000D02*
X51054000Y63246000D01*
X51054000Y68326000D02*
X52578000Y68326000D01*
X52578000Y68326000D02*
X54864000Y68326000D01*
X25400000Y68326000D02*
X22606000Y68326000D01*
X22606000Y68326000D02*
X21590000Y68326000D01*
X62484000Y73406000D02*
X61468000Y73406000D01*
X61468000Y73406000D02*
X60706000Y72644000D01*
X33020000Y73406000D02*
X32004000Y73406000D01*
X32004000Y73406000D02*
X31242000Y72644000D01*
X30774000Y48260000D02*
X29652876Y48260000D01*
X29652876Y48260000D02*
X29050438Y48862438D01*
X30774000Y48260000D02*
X30774000Y47138876D01*
X30774000Y47138876D02*
X31463438Y46449438D01*
X36830000Y73406000D02*
X37846000Y73406000D01*
X37846000Y73406000D02*
X38608000Y74168000D01*
X66294000Y73406000D02*
X67310000Y73406000D01*
X67310000Y73406000D02*
X68072000Y74168000D01*
X33020000Y73406000D02*
X36830000Y73406000D01*
X66294000Y73406000D02*
X62484000Y73406000D01*
X39878000Y48260000D02*
X39878000Y54356000D01*
X39878000Y54356000D02*
X37338000Y56896000D01*
X37338000Y56896000D02*
X37338000Y60706000D01*
X37338000Y60706000D02*
X39878000Y63246000D01*
X39878000Y63246000D02*
X39878000Y65278000D01*
X39878000Y65278000D02*
X36830000Y68326000D01*
X33020000Y68326000D02*
X36830000Y68326000D01*
X62992000Y48260000D02*
X62992000Y53594000D01*
X62992000Y53594000D02*
X66294000Y56896000D01*
X66294000Y56896000D02*
X66294000Y60452000D01*
X66294000Y60452000D02*
X69088000Y63246000D01*
X69088000Y63246000D02*
X69088000Y65532000D01*
X69088000Y65532000D02*
X66294000Y68326000D01*
X66294000Y68326000D02*
X62484000Y68326000D01*
X33274000Y48260000D02*
X33274000Y56060000D01*
X33274000Y56060000D02*
X32438000Y56896000D01*
X32438000Y56896000D02*
X32438000Y60526000D01*
X32438000Y60526000D02*
X29718000Y63246000D01*
X33020000Y70866000D02*
X31750000Y70866000D01*
X29718000Y68834000D02*
X29718000Y63246000D01*
X31750000Y70866000D02*
X29718000Y68834000D01*
X36830000Y70866000D02*
X33020000Y70866000D01*
X58928000Y48260000D02*
X58928000Y54430000D01*
X58928000Y54430000D02*
X61394000Y56896000D01*
X61394000Y56896000D02*
X61394000Y60780000D01*
X61394000Y60780000D02*
X58928000Y63246000D01*
X58928000Y63246000D02*
X58928000Y68580000D01*
X61214000Y70866000D02*
X62484000Y70866000D01*
X58928000Y68580000D02*
X61214000Y70866000D01*
X62484000Y70866000D02*
X66294000Y70866000D01*
X58674000Y16256000D02*
X58674000Y11684000D01*
X58674000Y16256000D02*
X58674000Y18796000D01*
X61214000Y21336000D02*
X69088000Y21336000D01*
X58674000Y18796000D02*
X61214000Y21336000D01*
X61214000Y16256000D02*
X61214000Y11684000D01*
X61214000Y16256000D02*
X61214000Y17526000D01*
X62484000Y18796000D02*
X69088000Y18796000D01*
X61214000Y17526000D02*
X62484000Y18796000D01*
X25908000Y28956000D02*
X25908000Y16510000D01*
X25908000Y16510000D02*
X26162000Y16256000D01*
X26162000Y11684000D02*
X26162000Y16256000D01*
X28702000Y16256000D02*
X28702000Y11684000D01*
X28702000Y28956000D02*
X28702000Y16256000D01*
X37084000Y16256000D02*
X37084000Y19812000D01*
X42672000Y25400000D02*
X42672000Y28956000D01*
X37084000Y19812000D02*
X42672000Y25400000D01*
X37084000Y16256000D02*
X37084000Y11684000D01*
X39624000Y16256000D02*
X39624000Y19304000D01*
X45466000Y25146000D02*
X45466000Y28956000D01*
X39624000Y19304000D02*
X45466000Y25146000D01*
X39624000Y16256000D02*
X39624000Y11684000D01*
X48006000Y16256000D02*
X48006000Y11684000D01*
X48006000Y16256000D02*
X48006000Y20320000D01*
X54102000Y26416000D02*
X69088000Y26416000D01*
X48006000Y20320000D02*
X54102000Y26416000D01*
X50546000Y16256000D02*
X50546000Y11684000D01*
X50546000Y16256000D02*
X50546000Y19304000D01*
X55118000Y23876000D02*
X69088000Y23876000D01*
X50546000Y19304000D02*
X55118000Y23876000D01*
X31496000Y39116000D02*
X31496000Y41148000D01*
X20320000Y70866000D02*
X21590000Y70866000D01*
X19304000Y69850000D02*
X20320000Y70866000D01*
X19304000Y53340000D02*
X19304000Y69850000D01*
X31496000Y41148000D02*
X19304000Y53340000D01*
X21590000Y70866000D02*
X25400000Y70866000D01*
X48260000Y39116000D02*
X48260000Y69342000D01*
X49784000Y70866000D02*
X51054000Y70866000D01*
X48260000Y69342000D02*
X49784000Y70866000D01*
X54864000Y70866000D02*
X51054000Y70866000D01*
X36830000Y75946000D02*
X33020000Y75946000D01*
X40386000Y75946000D02*
X36830000Y75946000D01*
X66294000Y75946000D02*
X62484000Y75946000D01*
X69850000Y75946000D02*
X66294000Y75946000D01*
X62484000Y84836000D02*
X63754000Y83566000D01*
X63500000Y83820000D02*
X63500000Y83566000D01*
X63754000Y83566000D02*
X63500000Y83820000D01*
X71628000Y40640000D02*
X69088000Y40640000D01*
X77216000Y46228000D02*
X71628000Y40640000D01*
X77216000Y77724000D02*
X77216000Y46228000D01*
X71374000Y83566000D02*
X77216000Y77724000D01*
X36830000Y83566000D02*
X43897996Y83566000D01*
X62484000Y85344000D02*
X62484000Y84836000D01*
X62484000Y84836000D02*
X62484000Y83566000D01*
X58375996Y89452004D02*
X62484000Y85344000D01*
X48546828Y89452004D02*
X58375996Y89452004D01*
X45167996Y86073172D02*
X48546828Y89452004D01*
X45167996Y84836000D02*
X45167996Y86073172D01*
X43897996Y83566000D02*
X45167996Y84836000D01*
X36830000Y83566000D02*
X33020000Y83566000D01*
X62484000Y83566000D02*
X63500000Y83566000D01*
X63500000Y83566000D02*
X66294000Y83566000D01*
X66294000Y83566000D02*
X71374000Y83566000D01*
X36830000Y81026000D02*
X44681998Y81026000D01*
X60452000Y81026000D02*
X62484000Y81026000D01*
X58950002Y82527998D02*
X60452000Y81026000D01*
X58950002Y85327586D02*
X58950002Y82527998D01*
X56625586Y87652002D02*
X58950002Y85327586D01*
X49292414Y87652002D02*
X56625586Y87652002D01*
X46967998Y85327586D02*
X49292414Y87652002D01*
X46967998Y83312000D02*
X46967998Y85327586D01*
X44681998Y81026000D02*
X46967998Y83312000D01*
X33020000Y81026000D02*
X36830000Y81026000D01*
X66294000Y81026000D02*
X62484000Y81026000D01*
X66294000Y81026000D02*
X71120000Y81026000D01*
X71374000Y43180000D02*
X69088000Y43180000D01*
X75184000Y46990000D02*
X71374000Y43180000D01*
X75184000Y76962000D02*
X75184000Y46990000D01*
X71120000Y81026000D02*
X75184000Y76962000D01*
X36830000Y78486000D02*
X46228000Y78486000D01*
X59436000Y78486000D02*
X62484000Y78486000D01*
X57150000Y80772000D02*
X59436000Y78486000D01*
X57150000Y84582000D02*
X57150000Y80772000D01*
X55880000Y85852000D02*
X57150000Y84582000D01*
X50038000Y85852000D02*
X55880000Y85852000D01*
X48768000Y84582000D02*
X50038000Y85852000D01*
X48768000Y81026000D02*
X48768000Y84582000D01*
X46228000Y78486000D02*
X48768000Y81026000D01*
X36830000Y78486000D02*
X33020000Y78486000D01*
X62484000Y78486000D02*
X66294000Y78486000D01*
X66294000Y78486000D02*
X70866000Y78486000D01*
X70866000Y78486000D02*
X73152000Y76200000D01*
X73152000Y76200000D02*
X73152000Y48006000D01*
X73152000Y48006000D02*
X70866000Y45720000D01*
X70866000Y45720000D02*
X69088000Y45720000D01*
X25400000Y83566000D02*
X21590000Y83566000D01*
X21590000Y81026000D02*
X25400000Y81026000D01*
X25400000Y78486000D02*
X21590000Y78486000D01*
X51054000Y83566000D02*
X54864000Y83566000D01*
X51054000Y81026000D02*
X54864000Y81026000D01*
X51054000Y78486000D02*
X54864000Y78486000D01*
X40386000Y86106000D02*
X42418000Y86106000D01*
X71882000Y33020000D02*
X69088000Y33020000D01*
X81280000Y42418000D02*
X71882000Y33020000D01*
X81280000Y78999588D02*
X81280000Y42418000D01*
X68839588Y91440000D02*
X81280000Y78999588D01*
X47752000Y91440000D02*
X68839588Y91440000D01*
X42418000Y86106000D02*
X47752000Y91440000D01*
X69088000Y35560000D02*
X61976000Y35560000D01*
X61976000Y35560000D02*
X58420000Y39116000D01*
X69850000Y86106000D02*
X71628000Y86106000D01*
X71633588Y38100000D02*
X69088000Y38100000D01*
X79248000Y45714412D02*
X71633588Y38100000D01*
X79248000Y78486000D02*
X79248000Y45714412D01*
X71628000Y86106000D02*
X79248000Y78486000D01*
X69088000Y28956000D02*
X55626000Y28956000D01*
X35560000Y28956000D02*
X31496000Y28956000D01*
X38862000Y32258000D02*
X35560000Y28956000D01*
X52324000Y32258000D02*
X38862000Y32258000D01*
X55626000Y28956000D02*
X52324000Y32258000D01*
X28702000Y39116000D02*
X28702000Y41148000D01*
X20066000Y73406000D02*
X21590000Y73406000D01*
X17272000Y70612000D02*
X20066000Y73406000D01*
X17272000Y52578000D02*
X17272000Y70612000D01*
X28702000Y41148000D02*
X17272000Y52578000D01*
X25400000Y73406000D02*
X21590000Y73406000D01*
X25908000Y39116000D02*
X25908000Y41148000D01*
X19812000Y75946000D02*
X21590000Y75946000D01*
X15240000Y71374000D02*
X19812000Y75946000D01*
X15240000Y51816000D02*
X15240000Y71374000D01*
X25908000Y41148000D02*
X15240000Y51816000D01*
X21590000Y75946000D02*
X25400000Y75946000D01*
X45466000Y39116000D02*
X45466000Y69850000D01*
X49022000Y73406000D02*
X51054000Y73406000D01*
X45466000Y69850000D02*
X49022000Y73406000D01*
X51054000Y73406000D02*
X54864000Y73406000D01*
X42672000Y39116000D02*
X42672000Y69850000D01*
X48768000Y75946000D02*
X51054000Y75946000D01*
X42672000Y69850000D02*
X48768000Y75946000D01*
X54864000Y75946000D02*
X51054000Y75946000D01*
D17*
G36*
X82081160Y93776984D02*
X83401039Y92690484D01*
X84204660Y91181594D01*
X84380000Y89373654D01*
X84380000Y10229931D01*
X84034502Y8492997D01*
X83090221Y7079779D01*
X81677005Y6135498D01*
X79940069Y5790000D01*
X10229931Y5790000D01*
X8492997Y6135498D01*
X7079779Y7079779D01*
X6135498Y8492995D01*
X5790000Y10229931D01*
X5790000Y23533986D01*
X19100701Y23533986D01*
X19363067Y22899011D01*
X19655652Y22605915D01*
X19364774Y22315544D01*
X19101300Y21681029D01*
X19100701Y20993986D01*
X19363067Y20359011D01*
X19655652Y20065915D01*
X19364774Y19775544D01*
X19101300Y19141029D01*
X19100701Y18453986D01*
X19363067Y17819011D01*
X19655652Y17525915D01*
X19364774Y17235544D01*
X19101300Y16601029D01*
X19100701Y15913986D01*
X19363067Y15279011D01*
X19655652Y14985915D01*
X19364774Y14695544D01*
X19101300Y14061029D01*
X19100701Y13373986D01*
X19363067Y12739011D01*
X19655652Y12445915D01*
X19364774Y12155544D01*
X19101300Y11521029D01*
X19100701Y10833986D01*
X19363067Y10199011D01*
X19848456Y9712774D01*
X20482971Y9449300D01*
X21170014Y9448701D01*
X21804989Y9711067D01*
X22291226Y10196456D01*
X22554700Y10830971D01*
X22555299Y11518014D01*
X22292933Y12152989D01*
X22000348Y12446085D01*
X22291226Y12736456D01*
X22554700Y13370971D01*
X22555299Y14058014D01*
X22292933Y14692989D01*
X22000348Y14986085D01*
X22291226Y15276456D01*
X22554700Y15910971D01*
X22555299Y16598014D01*
X22292933Y17232989D01*
X22000348Y17526085D01*
X22291226Y17816456D01*
X22554700Y18450971D01*
X22555299Y19138014D01*
X22292933Y19772989D01*
X22000348Y20066085D01*
X22291226Y20356456D01*
X22554700Y20990971D01*
X22555299Y21678014D01*
X22292933Y22312989D01*
X22000348Y22606085D01*
X22291226Y22896456D01*
X22554700Y23530971D01*
X22555299Y24218014D01*
X22292933Y24852989D01*
X21807544Y25339226D01*
X21173029Y25602700D01*
X20485986Y25603299D01*
X19851011Y25340933D01*
X19364774Y24855544D01*
X19101300Y24221029D01*
X19100701Y23533986D01*
X5790000Y23533986D01*
X5790000Y28613986D01*
X19100701Y28613986D01*
X19363067Y27979011D01*
X19848456Y27492774D01*
X20482971Y27229300D01*
X21170014Y27228701D01*
X21804989Y27491067D01*
X22291226Y27976456D01*
X22543658Y28584381D01*
X24031185Y28584381D01*
X24316261Y27894442D01*
X24531000Y27679328D01*
X24531000Y16772459D01*
X24435000Y16289834D01*
X24435000Y16222166D01*
X24566460Y15561272D01*
X24785000Y15234204D01*
X24785000Y12749620D01*
X24698774Y12663544D01*
X24435300Y12029029D01*
X24434701Y11341986D01*
X24697067Y10707011D01*
X25182456Y10220774D01*
X25816971Y9957300D01*
X26504014Y9956701D01*
X27138989Y10219067D01*
X27432085Y10511652D01*
X27722456Y10220774D01*
X28356971Y9957300D01*
X29044014Y9956701D01*
X29678989Y10219067D01*
X29682771Y10222843D01*
X30308345Y10222843D01*
X30379407Y9862157D01*
X31142257Y9670737D01*
X31920292Y9785817D01*
X32104593Y9862157D01*
X32175655Y10222843D01*
X31242000Y11156498D01*
X30308345Y10222843D01*
X29682771Y10222843D01*
X30165226Y10704456D01*
X30428700Y11338971D01*
X30428752Y11398254D01*
X30714498Y11684000D01*
X31769502Y11684000D01*
X32703157Y10750345D01*
X33063843Y10821407D01*
X33194470Y11341986D01*
X35356701Y11341986D01*
X35619067Y10707011D01*
X36104456Y10220774D01*
X36738971Y9957300D01*
X37426014Y9956701D01*
X38060989Y10219067D01*
X38354085Y10511652D01*
X38644456Y10220774D01*
X39278971Y9957300D01*
X39966014Y9956701D01*
X40600989Y10219067D01*
X40604771Y10222843D01*
X41230345Y10222843D01*
X41301407Y9862157D01*
X42064257Y9670737D01*
X42842292Y9785817D01*
X43026593Y9862157D01*
X43097655Y10222843D01*
X42164000Y11156498D01*
X41230345Y10222843D01*
X40604771Y10222843D01*
X41087226Y10704456D01*
X41350700Y11338971D01*
X41350752Y11398254D01*
X41636498Y11684000D01*
X42691502Y11684000D01*
X43625157Y10750345D01*
X43985843Y10821407D01*
X44177263Y11584257D01*
X44062183Y12362292D01*
X43985843Y12546593D01*
X43625157Y12617655D01*
X42691502Y11684000D01*
X41636498Y11684000D01*
X41622356Y11698142D01*
X42149858Y12225644D01*
X42164000Y12211502D01*
X43097655Y13145157D01*
X43026593Y13505843D01*
X42263743Y13697263D01*
X41485708Y13582183D01*
X41301407Y13505843D01*
X41230345Y13145159D01*
X41004174Y13371331D01*
X41001000Y13368157D01*
X41001000Y14571843D01*
X41004174Y14568669D01*
X41230345Y14794841D01*
X41301407Y14434157D01*
X42064257Y14242737D01*
X42842292Y14357817D01*
X43026593Y14434157D01*
X43097655Y14794843D01*
X42164000Y15728498D01*
X42149858Y15714356D01*
X41622356Y16241858D01*
X41636498Y16256000D01*
X42691502Y16256000D01*
X43625157Y15322345D01*
X43985843Y15393407D01*
X44177263Y16156257D01*
X44062183Y16934292D01*
X43985843Y17118593D01*
X43625157Y17189655D01*
X42691502Y16256000D01*
X41636498Y16256000D01*
X41622356Y16270142D01*
X42149858Y16797644D01*
X42164000Y16783502D01*
X43097655Y17717157D01*
X43026593Y18077843D01*
X42263743Y18269263D01*
X41485708Y18154183D01*
X41301407Y18077843D01*
X41230345Y17717159D01*
X41004174Y17943331D01*
X41001000Y17940157D01*
X41001000Y18733628D01*
X46439686Y24172314D01*
X46738182Y24619045D01*
X46843000Y25146000D01*
X46843000Y27679153D01*
X47055884Y27891666D01*
X47342164Y28581105D01*
X47342815Y29327619D01*
X47057739Y30017558D01*
X46530334Y30545884D01*
X45840895Y30832164D01*
X45094381Y30832815D01*
X44404442Y30547739D01*
X44068878Y30212760D01*
X43736334Y30545884D01*
X43046895Y30832164D01*
X42300381Y30832815D01*
X41610442Y30547739D01*
X41082116Y30020334D01*
X40795836Y29330895D01*
X40795185Y28584381D01*
X41080261Y27894442D01*
X41295000Y27679328D01*
X41295000Y25970372D01*
X36110314Y20785686D01*
X35811818Y20338955D01*
X35707000Y19812000D01*
X35707000Y17277796D01*
X35488460Y16950728D01*
X35357000Y16289834D01*
X35357000Y16222166D01*
X35488460Y15561272D01*
X35707000Y15234204D01*
X35707000Y12749620D01*
X35620774Y12663544D01*
X35357300Y12029029D01*
X35356701Y11341986D01*
X33194470Y11341986D01*
X33255263Y11584257D01*
X33140183Y12362292D01*
X33063843Y12546593D01*
X32703157Y12617655D01*
X31769502Y11684000D01*
X30714498Y11684000D01*
X30700356Y11698142D01*
X31227858Y12225644D01*
X31242000Y12211502D01*
X32175655Y13145157D01*
X32104593Y13505843D01*
X31341743Y13697263D01*
X30563708Y13582183D01*
X30379407Y13505843D01*
X30308345Y13145159D01*
X30082174Y13371331D01*
X30079000Y13368157D01*
X30079000Y14571843D01*
X30082174Y14568669D01*
X30308345Y14794841D01*
X30379407Y14434157D01*
X31142257Y14242737D01*
X31920292Y14357817D01*
X32104593Y14434157D01*
X32175655Y14794843D01*
X31242000Y15728498D01*
X31227858Y15714356D01*
X30700356Y16241858D01*
X30714498Y16256000D01*
X31769502Y16256000D01*
X32703157Y15322345D01*
X33063843Y15393407D01*
X33255263Y16156257D01*
X33140183Y16934292D01*
X33063843Y17118593D01*
X32703157Y17189655D01*
X31769502Y16256000D01*
X30714498Y16256000D01*
X30700356Y16270142D01*
X31227858Y16797644D01*
X31242000Y16783502D01*
X32175655Y17717157D01*
X32104593Y18077843D01*
X31341743Y18269263D01*
X30563708Y18154183D01*
X30379407Y18077843D01*
X30308345Y17717159D01*
X30082174Y17943331D01*
X30079000Y17940157D01*
X30079000Y27679153D01*
X30099122Y27699240D01*
X30431666Y27366116D01*
X31121105Y27079836D01*
X31867619Y27079185D01*
X32557558Y27364261D01*
X32772672Y27579000D01*
X35560000Y27579000D01*
X36086955Y27683818D01*
X36533686Y27982314D01*
X39432372Y30881000D01*
X51753628Y30881000D01*
X54652314Y27982314D01*
X54935643Y27793000D01*
X54102000Y27793000D01*
X53575045Y27688182D01*
X53128314Y27389686D01*
X47032314Y21293686D01*
X46733818Y20846955D01*
X46629000Y20320000D01*
X46629000Y17277796D01*
X46410460Y16950728D01*
X46279000Y16289834D01*
X46279000Y16222166D01*
X46410460Y15561272D01*
X46629000Y15234204D01*
X46629000Y12749620D01*
X46542774Y12663544D01*
X46279300Y12029029D01*
X46278701Y11341986D01*
X46541067Y10707011D01*
X47026456Y10220774D01*
X47660971Y9957300D01*
X48348014Y9956701D01*
X48982989Y10219067D01*
X49276085Y10511652D01*
X49566456Y10220774D01*
X50200971Y9957300D01*
X50888014Y9956701D01*
X51522989Y10219067D01*
X51526771Y10222843D01*
X52152345Y10222843D01*
X52223407Y9862157D01*
X52986257Y9670737D01*
X53764292Y9785817D01*
X53948593Y9862157D01*
X54019655Y10222843D01*
X53086000Y11156498D01*
X52152345Y10222843D01*
X51526771Y10222843D01*
X52009226Y10704456D01*
X52272700Y11338971D01*
X52272752Y11398254D01*
X52558498Y11684000D01*
X53613502Y11684000D01*
X54547157Y10750345D01*
X54907843Y10821407D01*
X55099263Y11584257D01*
X54984183Y12362292D01*
X54907843Y12546593D01*
X54547157Y12617655D01*
X53613502Y11684000D01*
X52558498Y11684000D01*
X52544356Y11698142D01*
X53071858Y12225644D01*
X53086000Y12211502D01*
X54019655Y13145157D01*
X53948593Y13505843D01*
X53185743Y13697263D01*
X52407708Y13582183D01*
X52223407Y13505843D01*
X52152345Y13145159D01*
X51926174Y13371331D01*
X51923000Y13368157D01*
X51923000Y14571843D01*
X51926174Y14568669D01*
X52152345Y14794841D01*
X52223407Y14434157D01*
X52986257Y14242737D01*
X53764292Y14357817D01*
X53948593Y14434157D01*
X54019655Y14794843D01*
X53086000Y15728498D01*
X53071858Y15714356D01*
X52544356Y16241858D01*
X52558498Y16256000D01*
X53613502Y16256000D01*
X54547157Y15322345D01*
X54907843Y15393407D01*
X55099263Y16156257D01*
X54984183Y16934292D01*
X54907843Y17118593D01*
X54547157Y17189655D01*
X53613502Y16256000D01*
X52558498Y16256000D01*
X52544356Y16270142D01*
X53071858Y16797644D01*
X53086000Y16783502D01*
X54019655Y17717157D01*
X53948593Y18077843D01*
X53185743Y18269263D01*
X52407708Y18154183D01*
X52223407Y18077843D01*
X52152345Y17717159D01*
X51926174Y17943331D01*
X51923000Y17940157D01*
X51923000Y18733628D01*
X55688372Y22499000D01*
X60523643Y22499000D01*
X60240314Y22309686D01*
X57700314Y19769686D01*
X57401818Y19322955D01*
X57297000Y18796000D01*
X57297000Y17277796D01*
X57078460Y16950728D01*
X56947000Y16289834D01*
X56947000Y16222166D01*
X57078460Y15561272D01*
X57297000Y15234204D01*
X57297000Y12749620D01*
X57210774Y12663544D01*
X56947300Y12029029D01*
X56946701Y11341986D01*
X57209067Y10707011D01*
X57694456Y10220774D01*
X58328971Y9957300D01*
X59016014Y9956701D01*
X59650989Y10219067D01*
X59944085Y10511652D01*
X60234456Y10220774D01*
X60868971Y9957300D01*
X61556014Y9956701D01*
X62190989Y10219067D01*
X62194771Y10222843D01*
X62820345Y10222843D01*
X62891407Y9862157D01*
X63654257Y9670737D01*
X64432292Y9785817D01*
X64616593Y9862157D01*
X64687655Y10222843D01*
X63754000Y11156498D01*
X62820345Y10222843D01*
X62194771Y10222843D01*
X62677226Y10704456D01*
X62940700Y11338971D01*
X62940752Y11398254D01*
X63226498Y11684000D01*
X64281502Y11684000D01*
X65215157Y10750345D01*
X65575843Y10821407D01*
X65767263Y11584257D01*
X65652183Y12362292D01*
X65575843Y12546593D01*
X65215157Y12617655D01*
X64281502Y11684000D01*
X63226498Y11684000D01*
X63212356Y11698142D01*
X63739858Y12225644D01*
X63754000Y12211502D01*
X64687655Y13145157D01*
X64616593Y13505843D01*
X63853743Y13697263D01*
X63075708Y13582183D01*
X62891407Y13505843D01*
X62820345Y13145159D01*
X62594174Y13371331D01*
X62591000Y13368157D01*
X62591000Y14571843D01*
X62594174Y14568669D01*
X62820345Y14794841D01*
X62891407Y14434157D01*
X63654257Y14242737D01*
X64432292Y14357817D01*
X64616593Y14434157D01*
X64687655Y14794843D01*
X63754000Y15728498D01*
X63739858Y15714356D01*
X63212356Y16241858D01*
X63226498Y16256000D01*
X63212356Y16270142D01*
X63739858Y16797644D01*
X63754000Y16783502D01*
X63768142Y16797644D01*
X64295644Y16270142D01*
X64281502Y16256000D01*
X65215157Y15322345D01*
X65575843Y15393407D01*
X65767263Y16156257D01*
X65652183Y16934292D01*
X65575843Y17118593D01*
X65215159Y17189655D01*
X65441331Y17415826D01*
X65438157Y17419000D01*
X67808551Y17419000D01*
X67624774Y17235544D01*
X67361300Y16601029D01*
X67360701Y15913986D01*
X67623067Y15279011D01*
X67915652Y14985915D01*
X67624774Y14695544D01*
X67361300Y14061029D01*
X67360701Y13373986D01*
X67623067Y12739011D01*
X67915652Y12445915D01*
X67624774Y12155544D01*
X67361300Y11521029D01*
X67360701Y10833986D01*
X67623067Y10199011D01*
X68108456Y9712774D01*
X68742971Y9449300D01*
X69430014Y9448701D01*
X70064989Y9711067D01*
X70551226Y10196456D01*
X70814700Y10830971D01*
X70815299Y11518014D01*
X70552933Y12152989D01*
X70260348Y12446085D01*
X70551226Y12736456D01*
X70814700Y13370971D01*
X70815299Y14058014D01*
X70552933Y14692989D01*
X70260348Y14986085D01*
X70551226Y15276456D01*
X70814700Y15910971D01*
X70815299Y16598014D01*
X70552933Y17232989D01*
X70260348Y17526085D01*
X70551226Y17816456D01*
X70814700Y18450971D01*
X70815299Y19138014D01*
X70552933Y19772989D01*
X70260348Y20066085D01*
X70551226Y20356456D01*
X70814700Y20990971D01*
X70815299Y21678014D01*
X70552933Y22312989D01*
X70260348Y22606085D01*
X70551226Y22896456D01*
X70814700Y23530971D01*
X70815299Y24218014D01*
X70552933Y24852989D01*
X70260348Y25146085D01*
X70551226Y25436456D01*
X70814700Y26070971D01*
X70815299Y26758014D01*
X70552933Y27392989D01*
X70260348Y27686085D01*
X70551226Y27976456D01*
X70814700Y28610971D01*
X70815299Y29298014D01*
X70552933Y29932989D01*
X70067544Y30419226D01*
X69433029Y30682700D01*
X68745986Y30683299D01*
X68111011Y30420933D01*
X68022924Y30333000D01*
X56196372Y30333000D01*
X53297686Y33231686D01*
X52850955Y33530182D01*
X52324000Y33635000D01*
X38862000Y33635000D01*
X38335045Y33530182D01*
X37888314Y33231686D01*
X34989628Y30333000D01*
X32772847Y30333000D01*
X32560334Y30545884D01*
X31870895Y30832164D01*
X31124381Y30832815D01*
X30434442Y30547739D01*
X30098878Y30212760D01*
X29766334Y30545884D01*
X29076895Y30832164D01*
X28330381Y30832815D01*
X27640442Y30547739D01*
X27304878Y30212760D01*
X26972334Y30545884D01*
X26282895Y30832164D01*
X25536381Y30832815D01*
X24846442Y30547739D01*
X24318116Y30020334D01*
X24031836Y29330895D01*
X24031185Y28584381D01*
X22543658Y28584381D01*
X22554700Y28610971D01*
X22555299Y29298014D01*
X22292933Y29932989D01*
X21807544Y30419226D01*
X21173029Y30682700D01*
X21113746Y30682752D01*
X20828000Y30968498D01*
X20542752Y30683250D01*
X20485986Y30683299D01*
X19851011Y30420933D01*
X19364774Y29935544D01*
X19101300Y29301029D01*
X19100701Y28613986D01*
X5790000Y28613986D01*
X5790000Y30823876D01*
X13888759Y30823876D01*
X13958037Y30656568D01*
X14415526Y30035477D01*
X15075872Y29636737D01*
X15375000Y29836234D01*
X15375000Y31123000D01*
X16121000Y31123000D01*
X16121000Y29836234D01*
X16420128Y29636737D01*
X17080474Y30035477D01*
X17537963Y30656568D01*
X17607241Y30823876D01*
X17401706Y31123000D01*
X16121000Y31123000D01*
X15375000Y31123000D01*
X14094294Y31123000D01*
X13888759Y30823876D01*
X5790000Y30823876D01*
X5790000Y31595743D01*
X18814737Y31595743D01*
X18929817Y30817708D01*
X19006157Y30633407D01*
X19366843Y30562345D01*
X20300498Y31496000D01*
X21355502Y31496000D01*
X22289157Y30562345D01*
X22649843Y30633407D01*
X22841263Y31396257D01*
X22726183Y32174292D01*
X22649843Y32358593D01*
X22289157Y32429655D01*
X21355502Y31496000D01*
X20300498Y31496000D01*
X19366843Y32429655D01*
X19006157Y32358593D01*
X18814737Y31595743D01*
X5790000Y31595743D01*
X5790000Y33363876D01*
X13888759Y33363876D01*
X13958037Y33196568D01*
X14275189Y32766000D01*
X13958037Y32335432D01*
X13888759Y32168124D01*
X14094294Y31869000D01*
X15375000Y31869000D01*
X15375000Y33663000D01*
X16121000Y33663000D01*
X16121000Y31869000D01*
X17401706Y31869000D01*
X17607241Y32168124D01*
X17537963Y32335432D01*
X17220811Y32766000D01*
X17361615Y32957157D01*
X19894345Y32957157D01*
X20085502Y32766000D01*
X19894345Y32574843D01*
X19965407Y32214157D01*
X20728257Y32022737D01*
X20815814Y32035688D01*
X20828000Y32023502D01*
X20844416Y32039918D01*
X21506292Y32137817D01*
X21690593Y32214157D01*
X21761655Y32574843D01*
X21570498Y32766000D01*
X21761655Y32957157D01*
X21690593Y33317843D01*
X20927743Y33509263D01*
X20840186Y33496312D01*
X20828000Y33508498D01*
X20811584Y33492082D01*
X20149708Y33394183D01*
X19965407Y33317843D01*
X19894345Y32957157D01*
X17361615Y32957157D01*
X17537963Y33196568D01*
X17607241Y33363876D01*
X17401706Y33663000D01*
X16121000Y33663000D01*
X15375000Y33663000D01*
X14094294Y33663000D01*
X13888759Y33363876D01*
X5790000Y33363876D01*
X5790000Y71374000D01*
X13863000Y71374000D01*
X13863000Y51816000D01*
X13967818Y51289045D01*
X14266314Y50842314D01*
X24531000Y40577628D01*
X24531000Y40392847D01*
X24318116Y40180334D01*
X24031836Y39490895D01*
X24031185Y38744381D01*
X24316261Y38054442D01*
X24417526Y37953000D01*
X22107449Y37953000D01*
X22291226Y38136456D01*
X22554700Y38770971D01*
X22555299Y39458014D01*
X22292933Y40092989D01*
X22000348Y40386085D01*
X22291226Y40676456D01*
X22554700Y41310971D01*
X22555299Y41998014D01*
X22292933Y42632989D01*
X21807544Y43119226D01*
X21173029Y43382700D01*
X20485986Y43383299D01*
X19851011Y43120933D01*
X19364774Y42635544D01*
X19101300Y42001029D01*
X19100701Y41313986D01*
X19363067Y40679011D01*
X19655652Y40385915D01*
X19364774Y40095544D01*
X19101300Y39461029D01*
X19100701Y38773986D01*
X19363067Y38139011D01*
X19548754Y37953000D01*
X16813620Y37953000D01*
X16727544Y38039226D01*
X16093029Y38302700D01*
X15405986Y38303299D01*
X14771011Y38040933D01*
X14284774Y37555544D01*
X14021300Y36921029D01*
X14020701Y36233986D01*
X14283067Y35599011D01*
X14402725Y35479144D01*
X13958037Y34875432D01*
X13888759Y34708124D01*
X14094294Y34409000D01*
X15375000Y34409000D01*
X15375000Y34429000D01*
X16121000Y34429000D01*
X16121000Y34409000D01*
X17401706Y34409000D01*
X17607241Y34708124D01*
X17537963Y34875432D01*
X17299626Y35199000D01*
X19143843Y35199000D01*
X19140669Y35195826D01*
X19366841Y34969655D01*
X19006157Y34898593D01*
X18814737Y34135743D01*
X18929817Y33357708D01*
X19006157Y33173407D01*
X19366843Y33102345D01*
X20300498Y34036000D01*
X20286356Y34050142D01*
X20813858Y34577644D01*
X20828000Y34563502D01*
X20842142Y34577644D01*
X21369644Y34050142D01*
X21355502Y34036000D01*
X22289157Y33102345D01*
X22649843Y33173407D01*
X22841263Y33936257D01*
X22726183Y34714292D01*
X22649843Y34898593D01*
X22289159Y34969655D01*
X22515331Y35195826D01*
X22512157Y35199000D01*
X49530000Y35199000D01*
X50056955Y35303818D01*
X50503686Y35602314D01*
X52027686Y37126314D01*
X52326182Y37573045D01*
X52431000Y38100000D01*
X52431000Y46798843D01*
X55494345Y46798843D01*
X55565407Y46438157D01*
X56328257Y46246737D01*
X57106292Y46361817D01*
X57290593Y46438157D01*
X57361655Y46798843D01*
X56428000Y47732498D01*
X55494345Y46798843D01*
X52431000Y46798843D01*
X52431000Y48359743D01*
X54414737Y48359743D01*
X54529817Y47581708D01*
X54606157Y47397407D01*
X54966843Y47326345D01*
X55900498Y48260000D01*
X54966843Y49193655D01*
X54606157Y49122593D01*
X54414737Y48359743D01*
X52431000Y48359743D01*
X52431000Y55245495D01*
X52620345Y55434841D01*
X52691407Y55074157D01*
X53454257Y54882737D01*
X54232292Y54997817D01*
X54416593Y55074157D01*
X54487655Y55434843D01*
X53554000Y56368498D01*
X53539858Y56354356D01*
X53012356Y56881858D01*
X53026498Y56896000D01*
X54081502Y56896000D01*
X55015157Y55962345D01*
X55375843Y56033407D01*
X55567263Y56796257D01*
X55452183Y57574292D01*
X55375843Y57758593D01*
X55015157Y57829655D01*
X54081502Y56896000D01*
X53026498Y56896000D01*
X53012356Y56910142D01*
X53539858Y57437644D01*
X53554000Y57423502D01*
X54487655Y58357157D01*
X54416593Y58717843D01*
X53653743Y58909263D01*
X52875708Y58794183D01*
X52691407Y58717843D01*
X52620345Y58357159D01*
X52431000Y58546505D01*
X52431000Y61595495D01*
X52620345Y61784841D01*
X52691407Y61424157D01*
X53454257Y61232737D01*
X54232292Y61347817D01*
X54416593Y61424157D01*
X54487655Y61784843D01*
X53554000Y62718498D01*
X53539858Y62704356D01*
X53012356Y63231858D01*
X53026498Y63246000D01*
X54081502Y63246000D01*
X55015157Y62312345D01*
X55375843Y62383407D01*
X55567263Y63146257D01*
X55452183Y63924292D01*
X55375843Y64108593D01*
X55015157Y64179655D01*
X54081502Y63246000D01*
X53026498Y63246000D01*
X53012356Y63260142D01*
X53539858Y63787644D01*
X53554000Y63773502D01*
X54487655Y64707157D01*
X54416593Y65067843D01*
X53653743Y65259263D01*
X52875708Y65144183D01*
X52691407Y65067843D01*
X52620345Y64707159D01*
X52431000Y64896505D01*
X52431000Y66485628D01*
X52894372Y66949000D01*
X53798380Y66949000D01*
X53884456Y66862774D01*
X54518971Y66599300D01*
X55206014Y66598701D01*
X55840989Y66861067D01*
X56327226Y67346456D01*
X56590700Y67980971D01*
X56591299Y68668014D01*
X56328933Y69302989D01*
X56036348Y69596085D01*
X56327226Y69886456D01*
X56590700Y70520971D01*
X56591299Y71208014D01*
X56328933Y71842989D01*
X56036348Y72136085D01*
X56327226Y72426456D01*
X56590700Y73060971D01*
X56591299Y73748014D01*
X56328933Y74382989D01*
X56036348Y74676085D01*
X56327226Y74966456D01*
X56590700Y75600971D01*
X56591299Y76288014D01*
X56328933Y76922989D01*
X56036348Y77216085D01*
X56327226Y77506456D01*
X56590700Y78140971D01*
X56591299Y78828014D01*
X56328933Y79462989D01*
X56036348Y79756085D01*
X56137236Y79856798D01*
X56176314Y79798314D01*
X58462314Y77512314D01*
X58909045Y77213818D01*
X59436000Y77109000D01*
X61204551Y77109000D01*
X61020774Y76925544D01*
X60757300Y76291029D01*
X60756701Y75603986D01*
X61019067Y74969011D01*
X61504456Y74482774D01*
X62138971Y74219300D01*
X62198254Y74219248D01*
X62484000Y73933502D01*
X62498142Y73947644D01*
X63025644Y73420142D01*
X63011502Y73406000D01*
X63025644Y73391858D01*
X62498142Y72864356D01*
X62484000Y72878498D01*
X62469858Y72864356D01*
X61942356Y73391858D01*
X61956498Y73406000D01*
X61022843Y74339655D01*
X60662157Y74268593D01*
X60470737Y73505743D01*
X60585817Y72727708D01*
X60662157Y72543407D01*
X61022841Y72472345D01*
X60796669Y72246174D01*
X60868556Y72174287D01*
X60687045Y72138182D01*
X60240314Y71839686D01*
X57954314Y69553686D01*
X57655818Y69106955D01*
X57551000Y68580000D01*
X57551000Y64522847D01*
X57338116Y64310334D01*
X57051836Y63620895D01*
X57051185Y62874381D01*
X57336261Y62184442D01*
X57863666Y61656116D01*
X58553105Y61369836D01*
X58857057Y61369571D01*
X60017000Y60209628D01*
X60017000Y57820321D01*
X60015501Y57818825D01*
X59767283Y57221050D01*
X59767279Y57216651D01*
X57954314Y55403686D01*
X57655818Y54956955D01*
X57551000Y54430000D01*
X57551000Y49910505D01*
X57361655Y49721159D01*
X57290593Y50081843D01*
X56527743Y50273263D01*
X55749708Y50158183D01*
X55565407Y50081843D01*
X55494345Y49721157D01*
X56428000Y48787502D01*
X56442142Y48801644D01*
X56969644Y48274142D01*
X56955502Y48260000D01*
X57200785Y48014717D01*
X57200701Y47917986D01*
X57463067Y47283011D01*
X57948456Y46796774D01*
X58582971Y46533300D01*
X59270014Y46532701D01*
X59904989Y46795067D01*
X60391226Y47280456D01*
X60654700Y47914971D01*
X60655299Y48602014D01*
X60392933Y49236989D01*
X60305000Y49325076D01*
X60305000Y53859628D01*
X61714092Y55268720D01*
X61716211Y55268718D01*
X62314418Y55515892D01*
X62772499Y55973175D01*
X63020717Y56570950D01*
X63021282Y57218211D01*
X62774108Y57816418D01*
X62771000Y57819531D01*
X62771000Y60780000D01*
X62666182Y61306955D01*
X62367686Y61753686D01*
X60804553Y63316819D01*
X60804815Y63617619D01*
X60519739Y64307558D01*
X60305000Y64522672D01*
X60305000Y68009628D01*
X60757118Y68461746D01*
X60756701Y67983986D01*
X61019067Y67349011D01*
X61504456Y66862774D01*
X62138971Y66599300D01*
X62826014Y66598701D01*
X63460989Y66861067D01*
X63549076Y66949000D01*
X65228380Y66949000D01*
X65314456Y66862774D01*
X65948971Y66599300D01*
X66073437Y66599191D01*
X67711000Y64961628D01*
X67711000Y64522847D01*
X67498116Y64310334D01*
X67211836Y63620895D01*
X67211571Y63316943D01*
X65320314Y61425686D01*
X65021818Y60978955D01*
X64917000Y60452000D01*
X64917000Y57820321D01*
X64915501Y57818825D01*
X64667283Y57221050D01*
X64667279Y57216651D01*
X62018314Y54567686D01*
X61719818Y54120955D01*
X61615000Y53594000D01*
X61615000Y49325620D01*
X61528774Y49239544D01*
X61265300Y48605029D01*
X61264701Y47917986D01*
X61527067Y47283011D01*
X62012456Y46796774D01*
X62646971Y46533300D01*
X63334014Y46532701D01*
X63968989Y46795067D01*
X63972771Y46798843D01*
X64558345Y46798843D01*
X64629407Y46438157D01*
X65392257Y46246737D01*
X66170292Y46361817D01*
X66354593Y46438157D01*
X66425655Y46798843D01*
X65492000Y47732498D01*
X64558345Y46798843D01*
X63972771Y46798843D01*
X64455226Y47280456D01*
X64718700Y47914971D01*
X64718787Y48014289D01*
X64964498Y48260000D01*
X66019502Y48260000D01*
X66953157Y47326345D01*
X67290000Y47392709D01*
X67626843Y47326345D01*
X68560498Y48260000D01*
X67626843Y49193655D01*
X67290000Y49127291D01*
X66953157Y49193655D01*
X66019502Y48260000D01*
X64964498Y48260000D01*
X64950356Y48274142D01*
X65477858Y48801644D01*
X65492000Y48787502D01*
X66425655Y49721157D01*
X66354593Y50081843D01*
X65591743Y50273263D01*
X64813708Y50158183D01*
X64629407Y50081843D01*
X64558345Y49721159D01*
X64369000Y49910505D01*
X64369000Y50457986D01*
X67360701Y50457986D01*
X67623067Y49823011D01*
X68108456Y49336774D01*
X68742971Y49073300D01*
X68802254Y49073248D01*
X69088000Y48787502D01*
X69373248Y49072750D01*
X69430014Y49072701D01*
X70064989Y49335067D01*
X70551226Y49820456D01*
X70814700Y50454971D01*
X70815299Y51142014D01*
X70552933Y51776989D01*
X70067544Y52263226D01*
X69433029Y52526700D01*
X68745986Y52527299D01*
X68111011Y52264933D01*
X67624774Y51779544D01*
X67361300Y51145029D01*
X67360701Y50457986D01*
X64369000Y50457986D01*
X64369000Y53023628D01*
X66614092Y55268720D01*
X66616211Y55268718D01*
X67214418Y55515892D01*
X67672499Y55973175D01*
X67920717Y56570950D01*
X67921282Y57218211D01*
X67674108Y57816418D01*
X67671000Y57819531D01*
X67671000Y59881628D01*
X69158819Y61369447D01*
X69459619Y61369185D01*
X70149558Y61654261D01*
X70677884Y62181666D01*
X70964164Y62871105D01*
X70964815Y63617619D01*
X70679739Y64307558D01*
X70465000Y64522672D01*
X70465000Y65532000D01*
X70360182Y66058955D01*
X70061686Y66505686D01*
X68021193Y68546179D01*
X68021299Y68668014D01*
X67758933Y69302989D01*
X67466348Y69596085D01*
X67757226Y69886456D01*
X68020700Y70520971D01*
X68021299Y71208014D01*
X67758933Y71842989D01*
X67273544Y72329226D01*
X66639029Y72592700D01*
X66579746Y72592752D01*
X66294000Y72878498D01*
X66279858Y72864356D01*
X65752356Y73391858D01*
X65766498Y73406000D01*
X65752356Y73420142D01*
X66279858Y73947644D01*
X66294000Y73933502D01*
X66308142Y73947644D01*
X66835644Y73420142D01*
X66821502Y73406000D01*
X67755157Y72472345D01*
X68115843Y72543407D01*
X68307263Y73306257D01*
X68192183Y74084292D01*
X68115843Y74268593D01*
X67755159Y74339655D01*
X67981331Y74565826D01*
X67978157Y74569000D01*
X68573153Y74569000D01*
X68785666Y74356116D01*
X69475105Y74069836D01*
X70221619Y74069185D01*
X70911558Y74354261D01*
X71439884Y74881666D01*
X71726164Y75571105D01*
X71726258Y75678370D01*
X71775000Y75629628D01*
X71775000Y48576372D01*
X71014964Y47816336D01*
X71101263Y48160257D01*
X70986183Y48938292D01*
X70909843Y49122593D01*
X70549157Y49193655D01*
X69615502Y48260000D01*
X69629644Y48245858D01*
X69102142Y47718356D01*
X69088000Y47732498D01*
X68802752Y47447250D01*
X68745986Y47447299D01*
X68111011Y47184933D01*
X67624774Y46699544D01*
X67361300Y46065029D01*
X67360701Y45377986D01*
X67623067Y44743011D01*
X67915652Y44449915D01*
X67624774Y44159544D01*
X67361300Y43525029D01*
X67360701Y42837986D01*
X67623067Y42203011D01*
X67915652Y41909915D01*
X67624774Y41619544D01*
X67361300Y40985029D01*
X67360701Y40297986D01*
X67623067Y39663011D01*
X67915652Y39369915D01*
X67624774Y39079544D01*
X67361300Y38445029D01*
X67360701Y37757986D01*
X67623067Y37123011D01*
X67808754Y36937000D01*
X62546372Y36937000D01*
X60296553Y39186819D01*
X60296815Y39487619D01*
X60011739Y40177558D01*
X59484334Y40705884D01*
X58794895Y40992164D01*
X58048381Y40992815D01*
X57358442Y40707739D01*
X56830116Y40180334D01*
X56543836Y39490895D01*
X56543185Y38744381D01*
X56828261Y38054442D01*
X57355666Y37526116D01*
X58045105Y37239836D01*
X58349057Y37239571D01*
X61002314Y34586314D01*
X61449045Y34287818D01*
X61976000Y34183000D01*
X67808551Y34183000D01*
X67624774Y33999544D01*
X67361300Y33365029D01*
X67360701Y32677986D01*
X67623067Y32043011D01*
X68108456Y31556774D01*
X68742971Y31293300D01*
X69430014Y31292701D01*
X70064989Y31555067D01*
X70153076Y31643000D01*
X71882000Y31643000D01*
X72408955Y31747818D01*
X72855686Y32046314D01*
X82253686Y41444314D01*
X82552182Y41891045D01*
X82657000Y42418000D01*
X82657000Y78999588D01*
X82552182Y79526543D01*
X82253686Y79973274D01*
X69813274Y92413686D01*
X69366543Y92712182D01*
X68839588Y92817000D01*
X47752000Y92817000D01*
X47225045Y92712182D01*
X46778314Y92413686D01*
X41847628Y87483000D01*
X41662847Y87483000D01*
X41450334Y87695884D01*
X40760895Y87982164D01*
X40014381Y87982815D01*
X39324442Y87697739D01*
X38796116Y87170334D01*
X38509836Y86480895D01*
X38509185Y85734381D01*
X38794261Y85044442D01*
X38895526Y84943000D01*
X37895620Y84943000D01*
X37809544Y85029226D01*
X37175029Y85292700D01*
X36487986Y85293299D01*
X35853011Y85030933D01*
X35764924Y84943000D01*
X34085620Y84943000D01*
X33999544Y85029226D01*
X33365029Y85292700D01*
X32677986Y85293299D01*
X32043011Y85030933D01*
X31556774Y84545544D01*
X31293300Y83911029D01*
X31292701Y83223986D01*
X31555067Y82589011D01*
X31847652Y82295915D01*
X31556774Y82005544D01*
X31293300Y81371029D01*
X31292701Y80683986D01*
X31555067Y80049011D01*
X31879476Y79724035D01*
X31801328Y79671818D01*
X31437800Y79127760D01*
X31310146Y78486000D01*
X31437800Y77844240D01*
X31801328Y77300182D01*
X31879645Y77247852D01*
X31556774Y76925544D01*
X31293300Y76291029D01*
X31292701Y75603986D01*
X31555067Y74969011D01*
X32040456Y74482774D01*
X32674971Y74219300D01*
X32734254Y74219248D01*
X33020000Y73933502D01*
X33034142Y73947644D01*
X33561644Y73420142D01*
X33547502Y73406000D01*
X33561644Y73391858D01*
X33034142Y72864356D01*
X33020000Y72878498D01*
X33005858Y72864356D01*
X32478356Y73391858D01*
X32492498Y73406000D01*
X31558843Y74339655D01*
X31198157Y74268593D01*
X31006737Y73505743D01*
X31121817Y72727708D01*
X31198157Y72543407D01*
X31558841Y72472345D01*
X31332669Y72246174D01*
X31404556Y72174287D01*
X31223045Y72138182D01*
X30776314Y71839686D01*
X28744314Y69807686D01*
X28445818Y69360955D01*
X28341000Y68834000D01*
X28341000Y64522847D01*
X28128116Y64310334D01*
X27841836Y63620895D01*
X27841185Y62874381D01*
X28126261Y62184442D01*
X28653666Y61656116D01*
X29343105Y61369836D01*
X29647057Y61369571D01*
X31061000Y59955628D01*
X31061000Y57820321D01*
X31059501Y57818825D01*
X30811283Y57221050D01*
X30810718Y56573789D01*
X31057892Y55975582D01*
X31515175Y55517501D01*
X31897000Y55358953D01*
X31897000Y49910505D01*
X31707655Y49721159D01*
X31636593Y50081843D01*
X30873743Y50273263D01*
X30095708Y50158183D01*
X29911407Y50081843D01*
X29840345Y49721157D01*
X30774000Y48787502D01*
X30788142Y48801644D01*
X31315644Y48274142D01*
X31301502Y48260000D01*
X31546785Y48014717D01*
X31546701Y47917986D01*
X31809067Y47283011D01*
X32294456Y46796774D01*
X32928971Y46533300D01*
X33616014Y46532701D01*
X34250989Y46795067D01*
X34254771Y46798843D01*
X36444345Y46798843D01*
X36515407Y46438157D01*
X37278257Y46246737D01*
X38056292Y46361817D01*
X38240593Y46438157D01*
X38311655Y46798843D01*
X37378000Y47732498D01*
X36444345Y46798843D01*
X34254771Y46798843D01*
X34737226Y47280456D01*
X35000700Y47914971D01*
X35001087Y48359743D01*
X35364737Y48359743D01*
X35479817Y47581708D01*
X35556157Y47397407D01*
X35916843Y47326345D01*
X36850498Y48260000D01*
X35916843Y49193655D01*
X35556157Y49122593D01*
X35364737Y48359743D01*
X35001087Y48359743D01*
X35001299Y48602014D01*
X34738933Y49236989D01*
X34651000Y49325076D01*
X34651000Y56060000D01*
X34546182Y56586955D01*
X34247686Y57033686D01*
X34065280Y57216092D01*
X34065282Y57218211D01*
X33818108Y57816418D01*
X33815000Y57819531D01*
X33815000Y60526000D01*
X33710182Y61052955D01*
X33411686Y61499686D01*
X31594553Y63316819D01*
X31594815Y63617619D01*
X31309739Y64307558D01*
X31095000Y64522672D01*
X31095000Y68263628D01*
X31293118Y68461746D01*
X31292701Y67983986D01*
X31555067Y67349011D01*
X32040456Y66862774D01*
X32674971Y66599300D01*
X33362014Y66598701D01*
X33996989Y66861067D01*
X34085076Y66949000D01*
X35764380Y66949000D01*
X35850456Y66862774D01*
X36484971Y66599300D01*
X36609437Y66599191D01*
X38501000Y64707628D01*
X38501000Y64522847D01*
X38288116Y64310334D01*
X38001836Y63620895D01*
X38001571Y63316943D01*
X36364314Y61679686D01*
X36065818Y61232955D01*
X35961000Y60706000D01*
X35961000Y57820321D01*
X35959501Y57818825D01*
X35711283Y57221050D01*
X35710718Y56573789D01*
X35957892Y55975582D01*
X36415175Y55517501D01*
X37012950Y55269283D01*
X37017349Y55269279D01*
X38501000Y53785628D01*
X38501000Y49910505D01*
X38311655Y49721159D01*
X38240593Y50081843D01*
X37477743Y50273263D01*
X36699708Y50158183D01*
X36515407Y50081843D01*
X36444345Y49721157D01*
X37378000Y48787502D01*
X37392142Y48801644D01*
X37919644Y48274142D01*
X37905502Y48260000D01*
X38150785Y48014717D01*
X38150701Y47917986D01*
X38413067Y47283011D01*
X38898456Y46796774D01*
X39532971Y46533300D01*
X40220014Y46532701D01*
X40854989Y46795067D01*
X41295000Y47234311D01*
X41295000Y40392847D01*
X41082116Y40180334D01*
X40795836Y39490895D01*
X40795185Y38744381D01*
X41080261Y38054442D01*
X41181526Y37953000D01*
X36130372Y37953000D01*
X35921000Y38162372D01*
X35921000Y40894000D01*
X35816182Y41420955D01*
X35517686Y41867686D01*
X31078799Y46306573D01*
X31452292Y46361817D01*
X31636593Y46438157D01*
X31707655Y46798843D01*
X30774000Y47732498D01*
X30759858Y47718356D01*
X30232356Y48245858D01*
X30246498Y48260000D01*
X29312843Y49193655D01*
X28952157Y49122593D01*
X28813873Y48571499D01*
X22967000Y54418372D01*
X22967000Y55245495D01*
X23156345Y55434841D01*
X23227407Y55074157D01*
X23990257Y54882737D01*
X24768292Y54997817D01*
X24952593Y55074157D01*
X25023655Y55434843D01*
X24090000Y56368498D01*
X24075858Y56354356D01*
X23548356Y56881858D01*
X23562498Y56896000D01*
X24617502Y56896000D01*
X25551157Y55962345D01*
X25911843Y56033407D01*
X26103263Y56796257D01*
X25988183Y57574292D01*
X25911843Y57758593D01*
X25551157Y57829655D01*
X24617502Y56896000D01*
X23562498Y56896000D01*
X23548356Y56910142D01*
X24075858Y57437644D01*
X24090000Y57423502D01*
X25023655Y58357157D01*
X24952593Y58717843D01*
X24189743Y58909263D01*
X23411708Y58794183D01*
X23227407Y58717843D01*
X23156345Y58357159D01*
X22967000Y58546505D01*
X22967000Y61595495D01*
X23156345Y61784841D01*
X23227407Y61424157D01*
X23990257Y61232737D01*
X24768292Y61347817D01*
X24952593Y61424157D01*
X25023655Y61784843D01*
X24090000Y62718498D01*
X24075858Y62704356D01*
X23548356Y63231858D01*
X23562498Y63246000D01*
X24617502Y63246000D01*
X25551157Y62312345D01*
X25911843Y62383407D01*
X26103263Y63146257D01*
X25988183Y63924292D01*
X25911843Y64108593D01*
X25551157Y64179655D01*
X24617502Y63246000D01*
X23562498Y63246000D01*
X23548356Y63260142D01*
X24075858Y63787644D01*
X24090000Y63773502D01*
X25023655Y64707157D01*
X24952593Y65067843D01*
X24189743Y65259263D01*
X23411708Y65144183D01*
X23227407Y65067843D01*
X23156345Y64707159D01*
X22967000Y64896505D01*
X22967000Y66485628D01*
X23430372Y66949000D01*
X24334380Y66949000D01*
X24420456Y66862774D01*
X25054971Y66599300D01*
X25742014Y66598701D01*
X26376989Y66861067D01*
X26863226Y67346456D01*
X27126700Y67980971D01*
X27127299Y68668014D01*
X26864933Y69302989D01*
X26572348Y69596085D01*
X26863226Y69886456D01*
X27126700Y70520971D01*
X27127299Y71208014D01*
X26864933Y71842989D01*
X26572348Y72136085D01*
X26863226Y72426456D01*
X27126700Y73060971D01*
X27127299Y73748014D01*
X26864933Y74382989D01*
X26572348Y74676085D01*
X26863226Y74966456D01*
X27126700Y75600971D01*
X27127299Y76288014D01*
X26864933Y76922989D01*
X26572348Y77216085D01*
X26863226Y77506456D01*
X27126700Y78140971D01*
X27127299Y78828014D01*
X26864933Y79462989D01*
X26572348Y79756085D01*
X26863226Y80046456D01*
X27126700Y80680971D01*
X27127299Y81368014D01*
X26864933Y82002989D01*
X26572348Y82296085D01*
X26863226Y82586456D01*
X27126700Y83220971D01*
X27127299Y83908014D01*
X26864933Y84542989D01*
X26379544Y85029226D01*
X25745029Y85292700D01*
X25057986Y85293299D01*
X24423011Y85030933D01*
X24334924Y84943000D01*
X22655620Y84943000D01*
X22569544Y85029226D01*
X21935029Y85292700D01*
X21247986Y85293299D01*
X20613011Y85030933D01*
X20126774Y84545544D01*
X19863300Y83911029D01*
X19862701Y83223986D01*
X20125067Y82589011D01*
X20417652Y82295915D01*
X20126774Y82005544D01*
X19863300Y81371029D01*
X19862701Y80683986D01*
X20125067Y80049011D01*
X20417652Y79755915D01*
X20126774Y79465544D01*
X19863300Y78831029D01*
X19862701Y78143986D01*
X20125067Y77509011D01*
X20310754Y77323000D01*
X19812000Y77323000D01*
X19285045Y77218182D01*
X18838314Y76919686D01*
X14266314Y72347686D01*
X13967818Y71900955D01*
X13863000Y71374000D01*
X5790000Y71374000D01*
X5790000Y89846069D01*
X6135498Y91583005D01*
X7079779Y92996221D01*
X8492997Y93940502D01*
X10229931Y94286000D01*
X80412139Y94286000D01*
X82081160Y93776984D01*
X82081160Y93776984D01*
G37*
X82081160Y93776984D02*
X83401039Y92690484D01*
X84204660Y91181594D01*
X84380000Y89373654D01*
X84380000Y10229931D01*
X84034502Y8492997D01*
X83090221Y7079779D01*
X81677005Y6135498D01*
X79940069Y5790000D01*
X10229931Y5790000D01*
X8492997Y6135498D01*
X7079779Y7079779D01*
X6135498Y8492995D01*
X5790000Y10229931D01*
X5790000Y23533986D01*
X19100701Y23533986D01*
X19363067Y22899011D01*
X19655652Y22605915D01*
X19364774Y22315544D01*
X19101300Y21681029D01*
X19100701Y20993986D01*
X19363067Y20359011D01*
X19655652Y20065915D01*
X19364774Y19775544D01*
X19101300Y19141029D01*
X19100701Y18453986D01*
X19363067Y17819011D01*
X19655652Y17525915D01*
X19364774Y17235544D01*
X19101300Y16601029D01*
X19100701Y15913986D01*
X19363067Y15279011D01*
X19655652Y14985915D01*
X19364774Y14695544D01*
X19101300Y14061029D01*
X19100701Y13373986D01*
X19363067Y12739011D01*
X19655652Y12445915D01*
X19364774Y12155544D01*
X19101300Y11521029D01*
X19100701Y10833986D01*
X19363067Y10199011D01*
X19848456Y9712774D01*
X20482971Y9449300D01*
X21170014Y9448701D01*
X21804989Y9711067D01*
X22291226Y10196456D01*
X22554700Y10830971D01*
X22555299Y11518014D01*
X22292933Y12152989D01*
X22000348Y12446085D01*
X22291226Y12736456D01*
X22554700Y13370971D01*
X22555299Y14058014D01*
X22292933Y14692989D01*
X22000348Y14986085D01*
X22291226Y15276456D01*
X22554700Y15910971D01*
X22555299Y16598014D01*
X22292933Y17232989D01*
X22000348Y17526085D01*
X22291226Y17816456D01*
X22554700Y18450971D01*
X22555299Y19138014D01*
X22292933Y19772989D01*
X22000348Y20066085D01*
X22291226Y20356456D01*
X22554700Y20990971D01*
X22555299Y21678014D01*
X22292933Y22312989D01*
X22000348Y22606085D01*
X22291226Y22896456D01*
X22554700Y23530971D01*
X22555299Y24218014D01*
X22292933Y24852989D01*
X21807544Y25339226D01*
X21173029Y25602700D01*
X20485986Y25603299D01*
X19851011Y25340933D01*
X19364774Y24855544D01*
X19101300Y24221029D01*
X19100701Y23533986D01*
X5790000Y23533986D01*
X5790000Y28613986D01*
X19100701Y28613986D01*
X19363067Y27979011D01*
X19848456Y27492774D01*
X20482971Y27229300D01*
X21170014Y27228701D01*
X21804989Y27491067D01*
X22291226Y27976456D01*
X22543658Y28584381D01*
X24031185Y28584381D01*
X24316261Y27894442D01*
X24531000Y27679328D01*
X24531000Y16772459D01*
X24435000Y16289834D01*
X24435000Y16222166D01*
X24566460Y15561272D01*
X24785000Y15234204D01*
X24785000Y12749620D01*
X24698774Y12663544D01*
X24435300Y12029029D01*
X24434701Y11341986D01*
X24697067Y10707011D01*
X25182456Y10220774D01*
X25816971Y9957300D01*
X26504014Y9956701D01*
X27138989Y10219067D01*
X27432085Y10511652D01*
X27722456Y10220774D01*
X28356971Y9957300D01*
X29044014Y9956701D01*
X29678989Y10219067D01*
X29682771Y10222843D01*
X30308345Y10222843D01*
X30379407Y9862157D01*
X31142257Y9670737D01*
X31920292Y9785817D01*
X32104593Y9862157D01*
X32175655Y10222843D01*
X31242000Y11156498D01*
X30308345Y10222843D01*
X29682771Y10222843D01*
X30165226Y10704456D01*
X30428700Y11338971D01*
X30428752Y11398254D01*
X30714498Y11684000D01*
X31769502Y11684000D01*
X32703157Y10750345D01*
X33063843Y10821407D01*
X33194470Y11341986D01*
X35356701Y11341986D01*
X35619067Y10707011D01*
X36104456Y10220774D01*
X36738971Y9957300D01*
X37426014Y9956701D01*
X38060989Y10219067D01*
X38354085Y10511652D01*
X38644456Y10220774D01*
X39278971Y9957300D01*
X39966014Y9956701D01*
X40600989Y10219067D01*
X40604771Y10222843D01*
X41230345Y10222843D01*
X41301407Y9862157D01*
X42064257Y9670737D01*
X42842292Y9785817D01*
X43026593Y9862157D01*
X43097655Y10222843D01*
X42164000Y11156498D01*
X41230345Y10222843D01*
X40604771Y10222843D01*
X41087226Y10704456D01*
X41350700Y11338971D01*
X41350752Y11398254D01*
X41636498Y11684000D01*
X42691502Y11684000D01*
X43625157Y10750345D01*
X43985843Y10821407D01*
X44177263Y11584257D01*
X44062183Y12362292D01*
X43985843Y12546593D01*
X43625157Y12617655D01*
X42691502Y11684000D01*
X41636498Y11684000D01*
X41622356Y11698142D01*
X42149858Y12225644D01*
X42164000Y12211502D01*
X43097655Y13145157D01*
X43026593Y13505843D01*
X42263743Y13697263D01*
X41485708Y13582183D01*
X41301407Y13505843D01*
X41230345Y13145159D01*
X41004174Y13371331D01*
X41001000Y13368157D01*
X41001000Y14571843D01*
X41004174Y14568669D01*
X41230345Y14794841D01*
X41301407Y14434157D01*
X42064257Y14242737D01*
X42842292Y14357817D01*
X43026593Y14434157D01*
X43097655Y14794843D01*
X42164000Y15728498D01*
X42149858Y15714356D01*
X41622356Y16241858D01*
X41636498Y16256000D01*
X42691502Y16256000D01*
X43625157Y15322345D01*
X43985843Y15393407D01*
X44177263Y16156257D01*
X44062183Y16934292D01*
X43985843Y17118593D01*
X43625157Y17189655D01*
X42691502Y16256000D01*
X41636498Y16256000D01*
X41622356Y16270142D01*
X42149858Y16797644D01*
X42164000Y16783502D01*
X43097655Y17717157D01*
X43026593Y18077843D01*
X42263743Y18269263D01*
X41485708Y18154183D01*
X41301407Y18077843D01*
X41230345Y17717159D01*
X41004174Y17943331D01*
X41001000Y17940157D01*
X41001000Y18733628D01*
X46439686Y24172314D01*
X46738182Y24619045D01*
X46843000Y25146000D01*
X46843000Y27679153D01*
X47055884Y27891666D01*
X47342164Y28581105D01*
X47342815Y29327619D01*
X47057739Y30017558D01*
X46530334Y30545884D01*
X45840895Y30832164D01*
X45094381Y30832815D01*
X44404442Y30547739D01*
X44068878Y30212760D01*
X43736334Y30545884D01*
X43046895Y30832164D01*
X42300381Y30832815D01*
X41610442Y30547739D01*
X41082116Y30020334D01*
X40795836Y29330895D01*
X40795185Y28584381D01*
X41080261Y27894442D01*
X41295000Y27679328D01*
X41295000Y25970372D01*
X36110314Y20785686D01*
X35811818Y20338955D01*
X35707000Y19812000D01*
X35707000Y17277796D01*
X35488460Y16950728D01*
X35357000Y16289834D01*
X35357000Y16222166D01*
X35488460Y15561272D01*
X35707000Y15234204D01*
X35707000Y12749620D01*
X35620774Y12663544D01*
X35357300Y12029029D01*
X35356701Y11341986D01*
X33194470Y11341986D01*
X33255263Y11584257D01*
X33140183Y12362292D01*
X33063843Y12546593D01*
X32703157Y12617655D01*
X31769502Y11684000D01*
X30714498Y11684000D01*
X30700356Y11698142D01*
X31227858Y12225644D01*
X31242000Y12211502D01*
X32175655Y13145157D01*
X32104593Y13505843D01*
X31341743Y13697263D01*
X30563708Y13582183D01*
X30379407Y13505843D01*
X30308345Y13145159D01*
X30082174Y13371331D01*
X30079000Y13368157D01*
X30079000Y14571843D01*
X30082174Y14568669D01*
X30308345Y14794841D01*
X30379407Y14434157D01*
X31142257Y14242737D01*
X31920292Y14357817D01*
X32104593Y14434157D01*
X32175655Y14794843D01*
X31242000Y15728498D01*
X31227858Y15714356D01*
X30700356Y16241858D01*
X30714498Y16256000D01*
X31769502Y16256000D01*
X32703157Y15322345D01*
X33063843Y15393407D01*
X33255263Y16156257D01*
X33140183Y16934292D01*
X33063843Y17118593D01*
X32703157Y17189655D01*
X31769502Y16256000D01*
X30714498Y16256000D01*
X30700356Y16270142D01*
X31227858Y16797644D01*
X31242000Y16783502D01*
X32175655Y17717157D01*
X32104593Y18077843D01*
X31341743Y18269263D01*
X30563708Y18154183D01*
X30379407Y18077843D01*
X30308345Y17717159D01*
X30082174Y17943331D01*
X30079000Y17940157D01*
X30079000Y27679153D01*
X30099122Y27699240D01*
X30431666Y27366116D01*
X31121105Y27079836D01*
X31867619Y27079185D01*
X32557558Y27364261D01*
X32772672Y27579000D01*
X35560000Y27579000D01*
X36086955Y27683818D01*
X36533686Y27982314D01*
X39432372Y30881000D01*
X51753628Y30881000D01*
X54652314Y27982314D01*
X54935643Y27793000D01*
X54102000Y27793000D01*
X53575045Y27688182D01*
X53128314Y27389686D01*
X47032314Y21293686D01*
X46733818Y20846955D01*
X46629000Y20320000D01*
X46629000Y17277796D01*
X46410460Y16950728D01*
X46279000Y16289834D01*
X46279000Y16222166D01*
X46410460Y15561272D01*
X46629000Y15234204D01*
X46629000Y12749620D01*
X46542774Y12663544D01*
X46279300Y12029029D01*
X46278701Y11341986D01*
X46541067Y10707011D01*
X47026456Y10220774D01*
X47660971Y9957300D01*
X48348014Y9956701D01*
X48982989Y10219067D01*
X49276085Y10511652D01*
X49566456Y10220774D01*
X50200971Y9957300D01*
X50888014Y9956701D01*
X51522989Y10219067D01*
X51526771Y10222843D01*
X52152345Y10222843D01*
X52223407Y9862157D01*
X52986257Y9670737D01*
X53764292Y9785817D01*
X53948593Y9862157D01*
X54019655Y10222843D01*
X53086000Y11156498D01*
X52152345Y10222843D01*
X51526771Y10222843D01*
X52009226Y10704456D01*
X52272700Y11338971D01*
X52272752Y11398254D01*
X52558498Y11684000D01*
X53613502Y11684000D01*
X54547157Y10750345D01*
X54907843Y10821407D01*
X55099263Y11584257D01*
X54984183Y12362292D01*
X54907843Y12546593D01*
X54547157Y12617655D01*
X53613502Y11684000D01*
X52558498Y11684000D01*
X52544356Y11698142D01*
X53071858Y12225644D01*
X53086000Y12211502D01*
X54019655Y13145157D01*
X53948593Y13505843D01*
X53185743Y13697263D01*
X52407708Y13582183D01*
X52223407Y13505843D01*
X52152345Y13145159D01*
X51926174Y13371331D01*
X51923000Y13368157D01*
X51923000Y14571843D01*
X51926174Y14568669D01*
X52152345Y14794841D01*
X52223407Y14434157D01*
X52986257Y14242737D01*
X53764292Y14357817D01*
X53948593Y14434157D01*
X54019655Y14794843D01*
X53086000Y15728498D01*
X53071858Y15714356D01*
X52544356Y16241858D01*
X52558498Y16256000D01*
X53613502Y16256000D01*
X54547157Y15322345D01*
X54907843Y15393407D01*
X55099263Y16156257D01*
X54984183Y16934292D01*
X54907843Y17118593D01*
X54547157Y17189655D01*
X53613502Y16256000D01*
X52558498Y16256000D01*
X52544356Y16270142D01*
X53071858Y16797644D01*
X53086000Y16783502D01*
X54019655Y17717157D01*
X53948593Y18077843D01*
X53185743Y18269263D01*
X52407708Y18154183D01*
X52223407Y18077843D01*
X52152345Y17717159D01*
X51926174Y17943331D01*
X51923000Y17940157D01*
X51923000Y18733628D01*
X55688372Y22499000D01*
X60523643Y22499000D01*
X60240314Y22309686D01*
X57700314Y19769686D01*
X57401818Y19322955D01*
X57297000Y18796000D01*
X57297000Y17277796D01*
X57078460Y16950728D01*
X56947000Y16289834D01*
X56947000Y16222166D01*
X57078460Y15561272D01*
X57297000Y15234204D01*
X57297000Y12749620D01*
X57210774Y12663544D01*
X56947300Y12029029D01*
X56946701Y11341986D01*
X57209067Y10707011D01*
X57694456Y10220774D01*
X58328971Y9957300D01*
X59016014Y9956701D01*
X59650989Y10219067D01*
X59944085Y10511652D01*
X60234456Y10220774D01*
X60868971Y9957300D01*
X61556014Y9956701D01*
X62190989Y10219067D01*
X62194771Y10222843D01*
X62820345Y10222843D01*
X62891407Y9862157D01*
X63654257Y9670737D01*
X64432292Y9785817D01*
X64616593Y9862157D01*
X64687655Y10222843D01*
X63754000Y11156498D01*
X62820345Y10222843D01*
X62194771Y10222843D01*
X62677226Y10704456D01*
X62940700Y11338971D01*
X62940752Y11398254D01*
X63226498Y11684000D01*
X64281502Y11684000D01*
X65215157Y10750345D01*
X65575843Y10821407D01*
X65767263Y11584257D01*
X65652183Y12362292D01*
X65575843Y12546593D01*
X65215157Y12617655D01*
X64281502Y11684000D01*
X63226498Y11684000D01*
X63212356Y11698142D01*
X63739858Y12225644D01*
X63754000Y12211502D01*
X64687655Y13145157D01*
X64616593Y13505843D01*
X63853743Y13697263D01*
X63075708Y13582183D01*
X62891407Y13505843D01*
X62820345Y13145159D01*
X62594174Y13371331D01*
X62591000Y13368157D01*
X62591000Y14571843D01*
X62594174Y14568669D01*
X62820345Y14794841D01*
X62891407Y14434157D01*
X63654257Y14242737D01*
X64432292Y14357817D01*
X64616593Y14434157D01*
X64687655Y14794843D01*
X63754000Y15728498D01*
X63739858Y15714356D01*
X63212356Y16241858D01*
X63226498Y16256000D01*
X63212356Y16270142D01*
X63739858Y16797644D01*
X63754000Y16783502D01*
X63768142Y16797644D01*
X64295644Y16270142D01*
X64281502Y16256000D01*
X65215157Y15322345D01*
X65575843Y15393407D01*
X65767263Y16156257D01*
X65652183Y16934292D01*
X65575843Y17118593D01*
X65215159Y17189655D01*
X65441331Y17415826D01*
X65438157Y17419000D01*
X67808551Y17419000D01*
X67624774Y17235544D01*
X67361300Y16601029D01*
X67360701Y15913986D01*
X67623067Y15279011D01*
X67915652Y14985915D01*
X67624774Y14695544D01*
X67361300Y14061029D01*
X67360701Y13373986D01*
X67623067Y12739011D01*
X67915652Y12445915D01*
X67624774Y12155544D01*
X67361300Y11521029D01*
X67360701Y10833986D01*
X67623067Y10199011D01*
X68108456Y9712774D01*
X68742971Y9449300D01*
X69430014Y9448701D01*
X70064989Y9711067D01*
X70551226Y10196456D01*
X70814700Y10830971D01*
X70815299Y11518014D01*
X70552933Y12152989D01*
X70260348Y12446085D01*
X70551226Y12736456D01*
X70814700Y13370971D01*
X70815299Y14058014D01*
X70552933Y14692989D01*
X70260348Y14986085D01*
X70551226Y15276456D01*
X70814700Y15910971D01*
X70815299Y16598014D01*
X70552933Y17232989D01*
X70260348Y17526085D01*
X70551226Y17816456D01*
X70814700Y18450971D01*
X70815299Y19138014D01*
X70552933Y19772989D01*
X70260348Y20066085D01*
X70551226Y20356456D01*
X70814700Y20990971D01*
X70815299Y21678014D01*
X70552933Y22312989D01*
X70260348Y22606085D01*
X70551226Y22896456D01*
X70814700Y23530971D01*
X70815299Y24218014D01*
X70552933Y24852989D01*
X70260348Y25146085D01*
X70551226Y25436456D01*
X70814700Y26070971D01*
X70815299Y26758014D01*
X70552933Y27392989D01*
X70260348Y27686085D01*
X70551226Y27976456D01*
X70814700Y28610971D01*
X70815299Y29298014D01*
X70552933Y29932989D01*
X70067544Y30419226D01*
X69433029Y30682700D01*
X68745986Y30683299D01*
X68111011Y30420933D01*
X68022924Y30333000D01*
X56196372Y30333000D01*
X53297686Y33231686D01*
X52850955Y33530182D01*
X52324000Y33635000D01*
X38862000Y33635000D01*
X38335045Y33530182D01*
X37888314Y33231686D01*
X34989628Y30333000D01*
X32772847Y30333000D01*
X32560334Y30545884D01*
X31870895Y30832164D01*
X31124381Y30832815D01*
X30434442Y30547739D01*
X30098878Y30212760D01*
X29766334Y30545884D01*
X29076895Y30832164D01*
X28330381Y30832815D01*
X27640442Y30547739D01*
X27304878Y30212760D01*
X26972334Y30545884D01*
X26282895Y30832164D01*
X25536381Y30832815D01*
X24846442Y30547739D01*
X24318116Y30020334D01*
X24031836Y29330895D01*
X24031185Y28584381D01*
X22543658Y28584381D01*
X22554700Y28610971D01*
X22555299Y29298014D01*
X22292933Y29932989D01*
X21807544Y30419226D01*
X21173029Y30682700D01*
X21113746Y30682752D01*
X20828000Y30968498D01*
X20542752Y30683250D01*
X20485986Y30683299D01*
X19851011Y30420933D01*
X19364774Y29935544D01*
X19101300Y29301029D01*
X19100701Y28613986D01*
X5790000Y28613986D01*
X5790000Y30823876D01*
X13888759Y30823876D01*
X13958037Y30656568D01*
X14415526Y30035477D01*
X15075872Y29636737D01*
X15375000Y29836234D01*
X15375000Y31123000D01*
X16121000Y31123000D01*
X16121000Y29836234D01*
X16420128Y29636737D01*
X17080474Y30035477D01*
X17537963Y30656568D01*
X17607241Y30823876D01*
X17401706Y31123000D01*
X16121000Y31123000D01*
X15375000Y31123000D01*
X14094294Y31123000D01*
X13888759Y30823876D01*
X5790000Y30823876D01*
X5790000Y31595743D01*
X18814737Y31595743D01*
X18929817Y30817708D01*
X19006157Y30633407D01*
X19366843Y30562345D01*
X20300498Y31496000D01*
X21355502Y31496000D01*
X22289157Y30562345D01*
X22649843Y30633407D01*
X22841263Y31396257D01*
X22726183Y32174292D01*
X22649843Y32358593D01*
X22289157Y32429655D01*
X21355502Y31496000D01*
X20300498Y31496000D01*
X19366843Y32429655D01*
X19006157Y32358593D01*
X18814737Y31595743D01*
X5790000Y31595743D01*
X5790000Y33363876D01*
X13888759Y33363876D01*
X13958037Y33196568D01*
X14275189Y32766000D01*
X13958037Y32335432D01*
X13888759Y32168124D01*
X14094294Y31869000D01*
X15375000Y31869000D01*
X15375000Y33663000D01*
X16121000Y33663000D01*
X16121000Y31869000D01*
X17401706Y31869000D01*
X17607241Y32168124D01*
X17537963Y32335432D01*
X17220811Y32766000D01*
X17361615Y32957157D01*
X19894345Y32957157D01*
X20085502Y32766000D01*
X19894345Y32574843D01*
X19965407Y32214157D01*
X20728257Y32022737D01*
X20815814Y32035688D01*
X20828000Y32023502D01*
X20844416Y32039918D01*
X21506292Y32137817D01*
X21690593Y32214157D01*
X21761655Y32574843D01*
X21570498Y32766000D01*
X21761655Y32957157D01*
X21690593Y33317843D01*
X20927743Y33509263D01*
X20840186Y33496312D01*
X20828000Y33508498D01*
X20811584Y33492082D01*
X20149708Y33394183D01*
X19965407Y33317843D01*
X19894345Y32957157D01*
X17361615Y32957157D01*
X17537963Y33196568D01*
X17607241Y33363876D01*
X17401706Y33663000D01*
X16121000Y33663000D01*
X15375000Y33663000D01*
X14094294Y33663000D01*
X13888759Y33363876D01*
X5790000Y33363876D01*
X5790000Y71374000D01*
X13863000Y71374000D01*
X13863000Y51816000D01*
X13967818Y51289045D01*
X14266314Y50842314D01*
X24531000Y40577628D01*
X24531000Y40392847D01*
X24318116Y40180334D01*
X24031836Y39490895D01*
X24031185Y38744381D01*
X24316261Y38054442D01*
X24417526Y37953000D01*
X22107449Y37953000D01*
X22291226Y38136456D01*
X22554700Y38770971D01*
X22555299Y39458014D01*
X22292933Y40092989D01*
X22000348Y40386085D01*
X22291226Y40676456D01*
X22554700Y41310971D01*
X22555299Y41998014D01*
X22292933Y42632989D01*
X21807544Y43119226D01*
X21173029Y43382700D01*
X20485986Y43383299D01*
X19851011Y43120933D01*
X19364774Y42635544D01*
X19101300Y42001029D01*
X19100701Y41313986D01*
X19363067Y40679011D01*
X19655652Y40385915D01*
X19364774Y40095544D01*
X19101300Y39461029D01*
X19100701Y38773986D01*
X19363067Y38139011D01*
X19548754Y37953000D01*
X16813620Y37953000D01*
X16727544Y38039226D01*
X16093029Y38302700D01*
X15405986Y38303299D01*
X14771011Y38040933D01*
X14284774Y37555544D01*
X14021300Y36921029D01*
X14020701Y36233986D01*
X14283067Y35599011D01*
X14402725Y35479144D01*
X13958037Y34875432D01*
X13888759Y34708124D01*
X14094294Y34409000D01*
X15375000Y34409000D01*
X15375000Y34429000D01*
X16121000Y34429000D01*
X16121000Y34409000D01*
X17401706Y34409000D01*
X17607241Y34708124D01*
X17537963Y34875432D01*
X17299626Y35199000D01*
X19143843Y35199000D01*
X19140669Y35195826D01*
X19366841Y34969655D01*
X19006157Y34898593D01*
X18814737Y34135743D01*
X18929817Y33357708D01*
X19006157Y33173407D01*
X19366843Y33102345D01*
X20300498Y34036000D01*
X20286356Y34050142D01*
X20813858Y34577644D01*
X20828000Y34563502D01*
X20842142Y34577644D01*
X21369644Y34050142D01*
X21355502Y34036000D01*
X22289157Y33102345D01*
X22649843Y33173407D01*
X22841263Y33936257D01*
X22726183Y34714292D01*
X22649843Y34898593D01*
X22289159Y34969655D01*
X22515331Y35195826D01*
X22512157Y35199000D01*
X49530000Y35199000D01*
X50056955Y35303818D01*
X50503686Y35602314D01*
X52027686Y37126314D01*
X52326182Y37573045D01*
X52431000Y38100000D01*
X52431000Y46798843D01*
X55494345Y46798843D01*
X55565407Y46438157D01*
X56328257Y46246737D01*
X57106292Y46361817D01*
X57290593Y46438157D01*
X57361655Y46798843D01*
X56428000Y47732498D01*
X55494345Y46798843D01*
X52431000Y46798843D01*
X52431000Y48359743D01*
X54414737Y48359743D01*
X54529817Y47581708D01*
X54606157Y47397407D01*
X54966843Y47326345D01*
X55900498Y48260000D01*
X54966843Y49193655D01*
X54606157Y49122593D01*
X54414737Y48359743D01*
X52431000Y48359743D01*
X52431000Y55245495D01*
X52620345Y55434841D01*
X52691407Y55074157D01*
X53454257Y54882737D01*
X54232292Y54997817D01*
X54416593Y55074157D01*
X54487655Y55434843D01*
X53554000Y56368498D01*
X53539858Y56354356D01*
X53012356Y56881858D01*
X53026498Y56896000D01*
X54081502Y56896000D01*
X55015157Y55962345D01*
X55375843Y56033407D01*
X55567263Y56796257D01*
X55452183Y57574292D01*
X55375843Y57758593D01*
X55015157Y57829655D01*
X54081502Y56896000D01*
X53026498Y56896000D01*
X53012356Y56910142D01*
X53539858Y57437644D01*
X53554000Y57423502D01*
X54487655Y58357157D01*
X54416593Y58717843D01*
X53653743Y58909263D01*
X52875708Y58794183D01*
X52691407Y58717843D01*
X52620345Y58357159D01*
X52431000Y58546505D01*
X52431000Y61595495D01*
X52620345Y61784841D01*
X52691407Y61424157D01*
X53454257Y61232737D01*
X54232292Y61347817D01*
X54416593Y61424157D01*
X54487655Y61784843D01*
X53554000Y62718498D01*
X53539858Y62704356D01*
X53012356Y63231858D01*
X53026498Y63246000D01*
X54081502Y63246000D01*
X55015157Y62312345D01*
X55375843Y62383407D01*
X55567263Y63146257D01*
X55452183Y63924292D01*
X55375843Y64108593D01*
X55015157Y64179655D01*
X54081502Y63246000D01*
X53026498Y63246000D01*
X53012356Y63260142D01*
X53539858Y63787644D01*
X53554000Y63773502D01*
X54487655Y64707157D01*
X54416593Y65067843D01*
X53653743Y65259263D01*
X52875708Y65144183D01*
X52691407Y65067843D01*
X52620345Y64707159D01*
X52431000Y64896505D01*
X52431000Y66485628D01*
X52894372Y66949000D01*
X53798380Y66949000D01*
X53884456Y66862774D01*
X54518971Y66599300D01*
X55206014Y66598701D01*
X55840989Y66861067D01*
X56327226Y67346456D01*
X56590700Y67980971D01*
X56591299Y68668014D01*
X56328933Y69302989D01*
X56036348Y69596085D01*
X56327226Y69886456D01*
X56590700Y70520971D01*
X56591299Y71208014D01*
X56328933Y71842989D01*
X56036348Y72136085D01*
X56327226Y72426456D01*
X56590700Y73060971D01*
X56591299Y73748014D01*
X56328933Y74382989D01*
X56036348Y74676085D01*
X56327226Y74966456D01*
X56590700Y75600971D01*
X56591299Y76288014D01*
X56328933Y76922989D01*
X56036348Y77216085D01*
X56327226Y77506456D01*
X56590700Y78140971D01*
X56591299Y78828014D01*
X56328933Y79462989D01*
X56036348Y79756085D01*
X56137236Y79856798D01*
X56176314Y79798314D01*
X58462314Y77512314D01*
X58909045Y77213818D01*
X59436000Y77109000D01*
X61204551Y77109000D01*
X61020774Y76925544D01*
X60757300Y76291029D01*
X60756701Y75603986D01*
X61019067Y74969011D01*
X61504456Y74482774D01*
X62138971Y74219300D01*
X62198254Y74219248D01*
X62484000Y73933502D01*
X62498142Y73947644D01*
X63025644Y73420142D01*
X63011502Y73406000D01*
X63025644Y73391858D01*
X62498142Y72864356D01*
X62484000Y72878498D01*
X62469858Y72864356D01*
X61942356Y73391858D01*
X61956498Y73406000D01*
X61022843Y74339655D01*
X60662157Y74268593D01*
X60470737Y73505743D01*
X60585817Y72727708D01*
X60662157Y72543407D01*
X61022841Y72472345D01*
X60796669Y72246174D01*
X60868556Y72174287D01*
X60687045Y72138182D01*
X60240314Y71839686D01*
X57954314Y69553686D01*
X57655818Y69106955D01*
X57551000Y68580000D01*
X57551000Y64522847D01*
X57338116Y64310334D01*
X57051836Y63620895D01*
X57051185Y62874381D01*
X57336261Y62184442D01*
X57863666Y61656116D01*
X58553105Y61369836D01*
X58857057Y61369571D01*
X60017000Y60209628D01*
X60017000Y57820321D01*
X60015501Y57818825D01*
X59767283Y57221050D01*
X59767279Y57216651D01*
X57954314Y55403686D01*
X57655818Y54956955D01*
X57551000Y54430000D01*
X57551000Y49910505D01*
X57361655Y49721159D01*
X57290593Y50081843D01*
X56527743Y50273263D01*
X55749708Y50158183D01*
X55565407Y50081843D01*
X55494345Y49721157D01*
X56428000Y48787502D01*
X56442142Y48801644D01*
X56969644Y48274142D01*
X56955502Y48260000D01*
X57200785Y48014717D01*
X57200701Y47917986D01*
X57463067Y47283011D01*
X57948456Y46796774D01*
X58582971Y46533300D01*
X59270014Y46532701D01*
X59904989Y46795067D01*
X60391226Y47280456D01*
X60654700Y47914971D01*
X60655299Y48602014D01*
X60392933Y49236989D01*
X60305000Y49325076D01*
X60305000Y53859628D01*
X61714092Y55268720D01*
X61716211Y55268718D01*
X62314418Y55515892D01*
X62772499Y55973175D01*
X63020717Y56570950D01*
X63021282Y57218211D01*
X62774108Y57816418D01*
X62771000Y57819531D01*
X62771000Y60780000D01*
X62666182Y61306955D01*
X62367686Y61753686D01*
X60804553Y63316819D01*
X60804815Y63617619D01*
X60519739Y64307558D01*
X60305000Y64522672D01*
X60305000Y68009628D01*
X60757118Y68461746D01*
X60756701Y67983986D01*
X61019067Y67349011D01*
X61504456Y66862774D01*
X62138971Y66599300D01*
X62826014Y66598701D01*
X63460989Y66861067D01*
X63549076Y66949000D01*
X65228380Y66949000D01*
X65314456Y66862774D01*
X65948971Y66599300D01*
X66073437Y66599191D01*
X67711000Y64961628D01*
X67711000Y64522847D01*
X67498116Y64310334D01*
X67211836Y63620895D01*
X67211571Y63316943D01*
X65320314Y61425686D01*
X65021818Y60978955D01*
X64917000Y60452000D01*
X64917000Y57820321D01*
X64915501Y57818825D01*
X64667283Y57221050D01*
X64667279Y57216651D01*
X62018314Y54567686D01*
X61719818Y54120955D01*
X61615000Y53594000D01*
X61615000Y49325620D01*
X61528774Y49239544D01*
X61265300Y48605029D01*
X61264701Y47917986D01*
X61527067Y47283011D01*
X62012456Y46796774D01*
X62646971Y46533300D01*
X63334014Y46532701D01*
X63968989Y46795067D01*
X63972771Y46798843D01*
X64558345Y46798843D01*
X64629407Y46438157D01*
X65392257Y46246737D01*
X66170292Y46361817D01*
X66354593Y46438157D01*
X66425655Y46798843D01*
X65492000Y47732498D01*
X64558345Y46798843D01*
X63972771Y46798843D01*
X64455226Y47280456D01*
X64718700Y47914971D01*
X64718787Y48014289D01*
X64964498Y48260000D01*
X66019502Y48260000D01*
X66953157Y47326345D01*
X67290000Y47392709D01*
X67626843Y47326345D01*
X68560498Y48260000D01*
X67626843Y49193655D01*
X67290000Y49127291D01*
X66953157Y49193655D01*
X66019502Y48260000D01*
X64964498Y48260000D01*
X64950356Y48274142D01*
X65477858Y48801644D01*
X65492000Y48787502D01*
X66425655Y49721157D01*
X66354593Y50081843D01*
X65591743Y50273263D01*
X64813708Y50158183D01*
X64629407Y50081843D01*
X64558345Y49721159D01*
X64369000Y49910505D01*
X64369000Y50457986D01*
X67360701Y50457986D01*
X67623067Y49823011D01*
X68108456Y49336774D01*
X68742971Y49073300D01*
X68802254Y49073248D01*
X69088000Y48787502D01*
X69373248Y49072750D01*
X69430014Y49072701D01*
X70064989Y49335067D01*
X70551226Y49820456D01*
X70814700Y50454971D01*
X70815299Y51142014D01*
X70552933Y51776989D01*
X70067544Y52263226D01*
X69433029Y52526700D01*
X68745986Y52527299D01*
X68111011Y52264933D01*
X67624774Y51779544D01*
X67361300Y51145029D01*
X67360701Y50457986D01*
X64369000Y50457986D01*
X64369000Y53023628D01*
X66614092Y55268720D01*
X66616211Y55268718D01*
X67214418Y55515892D01*
X67672499Y55973175D01*
X67920717Y56570950D01*
X67921282Y57218211D01*
X67674108Y57816418D01*
X67671000Y57819531D01*
X67671000Y59881628D01*
X69158819Y61369447D01*
X69459619Y61369185D01*
X70149558Y61654261D01*
X70677884Y62181666D01*
X70964164Y62871105D01*
X70964815Y63617619D01*
X70679739Y64307558D01*
X70465000Y64522672D01*
X70465000Y65532000D01*
X70360182Y66058955D01*
X70061686Y66505686D01*
X68021193Y68546179D01*
X68021299Y68668014D01*
X67758933Y69302989D01*
X67466348Y69596085D01*
X67757226Y69886456D01*
X68020700Y70520971D01*
X68021299Y71208014D01*
X67758933Y71842989D01*
X67273544Y72329226D01*
X66639029Y72592700D01*
X66579746Y72592752D01*
X66294000Y72878498D01*
X66279858Y72864356D01*
X65752356Y73391858D01*
X65766498Y73406000D01*
X65752356Y73420142D01*
X66279858Y73947644D01*
X66294000Y73933502D01*
X66308142Y73947644D01*
X66835644Y73420142D01*
X66821502Y73406000D01*
X67755157Y72472345D01*
X68115843Y72543407D01*
X68307263Y73306257D01*
X68192183Y74084292D01*
X68115843Y74268593D01*
X67755159Y74339655D01*
X67981331Y74565826D01*
X67978157Y74569000D01*
X68573153Y74569000D01*
X68785666Y74356116D01*
X69475105Y74069836D01*
X70221619Y74069185D01*
X70911558Y74354261D01*
X71439884Y74881666D01*
X71726164Y75571105D01*
X71726258Y75678370D01*
X71775000Y75629628D01*
X71775000Y48576372D01*
X71014964Y47816336D01*
X71101263Y48160257D01*
X70986183Y48938292D01*
X70909843Y49122593D01*
X70549157Y49193655D01*
X69615502Y48260000D01*
X69629644Y48245858D01*
X69102142Y47718356D01*
X69088000Y47732498D01*
X68802752Y47447250D01*
X68745986Y47447299D01*
X68111011Y47184933D01*
X67624774Y46699544D01*
X67361300Y46065029D01*
X67360701Y45377986D01*
X67623067Y44743011D01*
X67915652Y44449915D01*
X67624774Y44159544D01*
X67361300Y43525029D01*
X67360701Y42837986D01*
X67623067Y42203011D01*
X67915652Y41909915D01*
X67624774Y41619544D01*
X67361300Y40985029D01*
X67360701Y40297986D01*
X67623067Y39663011D01*
X67915652Y39369915D01*
X67624774Y39079544D01*
X67361300Y38445029D01*
X67360701Y37757986D01*
X67623067Y37123011D01*
X67808754Y36937000D01*
X62546372Y36937000D01*
X60296553Y39186819D01*
X60296815Y39487619D01*
X60011739Y40177558D01*
X59484334Y40705884D01*
X58794895Y40992164D01*
X58048381Y40992815D01*
X57358442Y40707739D01*
X56830116Y40180334D01*
X56543836Y39490895D01*
X56543185Y38744381D01*
X56828261Y38054442D01*
X57355666Y37526116D01*
X58045105Y37239836D01*
X58349057Y37239571D01*
X61002314Y34586314D01*
X61449045Y34287818D01*
X61976000Y34183000D01*
X67808551Y34183000D01*
X67624774Y33999544D01*
X67361300Y33365029D01*
X67360701Y32677986D01*
X67623067Y32043011D01*
X68108456Y31556774D01*
X68742971Y31293300D01*
X69430014Y31292701D01*
X70064989Y31555067D01*
X70153076Y31643000D01*
X71882000Y31643000D01*
X72408955Y31747818D01*
X72855686Y32046314D01*
X82253686Y41444314D01*
X82552182Y41891045D01*
X82657000Y42418000D01*
X82657000Y78999588D01*
X82552182Y79526543D01*
X82253686Y79973274D01*
X69813274Y92413686D01*
X69366543Y92712182D01*
X68839588Y92817000D01*
X47752000Y92817000D01*
X47225045Y92712182D01*
X46778314Y92413686D01*
X41847628Y87483000D01*
X41662847Y87483000D01*
X41450334Y87695884D01*
X40760895Y87982164D01*
X40014381Y87982815D01*
X39324442Y87697739D01*
X38796116Y87170334D01*
X38509836Y86480895D01*
X38509185Y85734381D01*
X38794261Y85044442D01*
X38895526Y84943000D01*
X37895620Y84943000D01*
X37809544Y85029226D01*
X37175029Y85292700D01*
X36487986Y85293299D01*
X35853011Y85030933D01*
X35764924Y84943000D01*
X34085620Y84943000D01*
X33999544Y85029226D01*
X33365029Y85292700D01*
X32677986Y85293299D01*
X32043011Y85030933D01*
X31556774Y84545544D01*
X31293300Y83911029D01*
X31292701Y83223986D01*
X31555067Y82589011D01*
X31847652Y82295915D01*
X31556774Y82005544D01*
X31293300Y81371029D01*
X31292701Y80683986D01*
X31555067Y80049011D01*
X31879476Y79724035D01*
X31801328Y79671818D01*
X31437800Y79127760D01*
X31310146Y78486000D01*
X31437800Y77844240D01*
X31801328Y77300182D01*
X31879645Y77247852D01*
X31556774Y76925544D01*
X31293300Y76291029D01*
X31292701Y75603986D01*
X31555067Y74969011D01*
X32040456Y74482774D01*
X32674971Y74219300D01*
X32734254Y74219248D01*
X33020000Y73933502D01*
X33034142Y73947644D01*
X33561644Y73420142D01*
X33547502Y73406000D01*
X33561644Y73391858D01*
X33034142Y72864356D01*
X33020000Y72878498D01*
X33005858Y72864356D01*
X32478356Y73391858D01*
X32492498Y73406000D01*
X31558843Y74339655D01*
X31198157Y74268593D01*
X31006737Y73505743D01*
X31121817Y72727708D01*
X31198157Y72543407D01*
X31558841Y72472345D01*
X31332669Y72246174D01*
X31404556Y72174287D01*
X31223045Y72138182D01*
X30776314Y71839686D01*
X28744314Y69807686D01*
X28445818Y69360955D01*
X28341000Y68834000D01*
X28341000Y64522847D01*
X28128116Y64310334D01*
X27841836Y63620895D01*
X27841185Y62874381D01*
X28126261Y62184442D01*
X28653666Y61656116D01*
X29343105Y61369836D01*
X29647057Y61369571D01*
X31061000Y59955628D01*
X31061000Y57820321D01*
X31059501Y57818825D01*
X30811283Y57221050D01*
X30810718Y56573789D01*
X31057892Y55975582D01*
X31515175Y55517501D01*
X31897000Y55358953D01*
X31897000Y49910505D01*
X31707655Y49721159D01*
X31636593Y50081843D01*
X30873743Y50273263D01*
X30095708Y50158183D01*
X29911407Y50081843D01*
X29840345Y49721157D01*
X30774000Y48787502D01*
X30788142Y48801644D01*
X31315644Y48274142D01*
X31301502Y48260000D01*
X31546785Y48014717D01*
X31546701Y47917986D01*
X31809067Y47283011D01*
X32294456Y46796774D01*
X32928971Y46533300D01*
X33616014Y46532701D01*
X34250989Y46795067D01*
X34254771Y46798843D01*
X36444345Y46798843D01*
X36515407Y46438157D01*
X37278257Y46246737D01*
X38056292Y46361817D01*
X38240593Y46438157D01*
X38311655Y46798843D01*
X37378000Y47732498D01*
X36444345Y46798843D01*
X34254771Y46798843D01*
X34737226Y47280456D01*
X35000700Y47914971D01*
X35001087Y48359743D01*
X35364737Y48359743D01*
X35479817Y47581708D01*
X35556157Y47397407D01*
X35916843Y47326345D01*
X36850498Y48260000D01*
X35916843Y49193655D01*
X35556157Y49122593D01*
X35364737Y48359743D01*
X35001087Y48359743D01*
X35001299Y48602014D01*
X34738933Y49236989D01*
X34651000Y49325076D01*
X34651000Y56060000D01*
X34546182Y56586955D01*
X34247686Y57033686D01*
X34065280Y57216092D01*
X34065282Y57218211D01*
X33818108Y57816418D01*
X33815000Y57819531D01*
X33815000Y60526000D01*
X33710182Y61052955D01*
X33411686Y61499686D01*
X31594553Y63316819D01*
X31594815Y63617619D01*
X31309739Y64307558D01*
X31095000Y64522672D01*
X31095000Y68263628D01*
X31293118Y68461746D01*
X31292701Y67983986D01*
X31555067Y67349011D01*
X32040456Y66862774D01*
X32674971Y66599300D01*
X33362014Y66598701D01*
X33996989Y66861067D01*
X34085076Y66949000D01*
X35764380Y66949000D01*
X35850456Y66862774D01*
X36484971Y66599300D01*
X36609437Y66599191D01*
X38501000Y64707628D01*
X38501000Y64522847D01*
X38288116Y64310334D01*
X38001836Y63620895D01*
X38001571Y63316943D01*
X36364314Y61679686D01*
X36065818Y61232955D01*
X35961000Y60706000D01*
X35961000Y57820321D01*
X35959501Y57818825D01*
X35711283Y57221050D01*
X35710718Y56573789D01*
X35957892Y55975582D01*
X36415175Y55517501D01*
X37012950Y55269283D01*
X37017349Y55269279D01*
X38501000Y53785628D01*
X38501000Y49910505D01*
X38311655Y49721159D01*
X38240593Y50081843D01*
X37477743Y50273263D01*
X36699708Y50158183D01*
X36515407Y50081843D01*
X36444345Y49721157D01*
X37378000Y48787502D01*
X37392142Y48801644D01*
X37919644Y48274142D01*
X37905502Y48260000D01*
X38150785Y48014717D01*
X38150701Y47917986D01*
X38413067Y47283011D01*
X38898456Y46796774D01*
X39532971Y46533300D01*
X40220014Y46532701D01*
X40854989Y46795067D01*
X41295000Y47234311D01*
X41295000Y40392847D01*
X41082116Y40180334D01*
X40795836Y39490895D01*
X40795185Y38744381D01*
X41080261Y38054442D01*
X41181526Y37953000D01*
X36130372Y37953000D01*
X35921000Y38162372D01*
X35921000Y40894000D01*
X35816182Y41420955D01*
X35517686Y41867686D01*
X31078799Y46306573D01*
X31452292Y46361817D01*
X31636593Y46438157D01*
X31707655Y46798843D01*
X30774000Y47732498D01*
X30759858Y47718356D01*
X30232356Y48245858D01*
X30246498Y48260000D01*
X29312843Y49193655D01*
X28952157Y49122593D01*
X28813873Y48571499D01*
X22967000Y54418372D01*
X22967000Y55245495D01*
X23156345Y55434841D01*
X23227407Y55074157D01*
X23990257Y54882737D01*
X24768292Y54997817D01*
X24952593Y55074157D01*
X25023655Y55434843D01*
X24090000Y56368498D01*
X24075858Y56354356D01*
X23548356Y56881858D01*
X23562498Y56896000D01*
X24617502Y56896000D01*
X25551157Y55962345D01*
X25911843Y56033407D01*
X26103263Y56796257D01*
X25988183Y57574292D01*
X25911843Y57758593D01*
X25551157Y57829655D01*
X24617502Y56896000D01*
X23562498Y56896000D01*
X23548356Y56910142D01*
X24075858Y57437644D01*
X24090000Y57423502D01*
X25023655Y58357157D01*
X24952593Y58717843D01*
X24189743Y58909263D01*
X23411708Y58794183D01*
X23227407Y58717843D01*
X23156345Y58357159D01*
X22967000Y58546505D01*
X22967000Y61595495D01*
X23156345Y61784841D01*
X23227407Y61424157D01*
X23990257Y61232737D01*
X24768292Y61347817D01*
X24952593Y61424157D01*
X25023655Y61784843D01*
X24090000Y62718498D01*
X24075858Y62704356D01*
X23548356Y63231858D01*
X23562498Y63246000D01*
X24617502Y63246000D01*
X25551157Y62312345D01*
X25911843Y62383407D01*
X26103263Y63146257D01*
X25988183Y63924292D01*
X25911843Y64108593D01*
X25551157Y64179655D01*
X24617502Y63246000D01*
X23562498Y63246000D01*
X23548356Y63260142D01*
X24075858Y63787644D01*
X24090000Y63773502D01*
X25023655Y64707157D01*
X24952593Y65067843D01*
X24189743Y65259263D01*
X23411708Y65144183D01*
X23227407Y65067843D01*
X23156345Y64707159D01*
X22967000Y64896505D01*
X22967000Y66485628D01*
X23430372Y66949000D01*
X24334380Y66949000D01*
X24420456Y66862774D01*
X25054971Y66599300D01*
X25742014Y66598701D01*
X26376989Y66861067D01*
X26863226Y67346456D01*
X27126700Y67980971D01*
X27127299Y68668014D01*
X26864933Y69302989D01*
X26572348Y69596085D01*
X26863226Y69886456D01*
X27126700Y70520971D01*
X27127299Y71208014D01*
X26864933Y71842989D01*
X26572348Y72136085D01*
X26863226Y72426456D01*
X27126700Y73060971D01*
X27127299Y73748014D01*
X26864933Y74382989D01*
X26572348Y74676085D01*
X26863226Y74966456D01*
X27126700Y75600971D01*
X27127299Y76288014D01*
X26864933Y76922989D01*
X26572348Y77216085D01*
X26863226Y77506456D01*
X27126700Y78140971D01*
X27127299Y78828014D01*
X26864933Y79462989D01*
X26572348Y79756085D01*
X26863226Y80046456D01*
X27126700Y80680971D01*
X27127299Y81368014D01*
X26864933Y82002989D01*
X26572348Y82296085D01*
X26863226Y82586456D01*
X27126700Y83220971D01*
X27127299Y83908014D01*
X26864933Y84542989D01*
X26379544Y85029226D01*
X25745029Y85292700D01*
X25057986Y85293299D01*
X24423011Y85030933D01*
X24334924Y84943000D01*
X22655620Y84943000D01*
X22569544Y85029226D01*
X21935029Y85292700D01*
X21247986Y85293299D01*
X20613011Y85030933D01*
X20126774Y84545544D01*
X19863300Y83911029D01*
X19862701Y83223986D01*
X20125067Y82589011D01*
X20417652Y82295915D01*
X20126774Y82005544D01*
X19863300Y81371029D01*
X19862701Y80683986D01*
X20125067Y80049011D01*
X20417652Y79755915D01*
X20126774Y79465544D01*
X19863300Y78831029D01*
X19862701Y78143986D01*
X20125067Y77509011D01*
X20310754Y77323000D01*
X19812000Y77323000D01*
X19285045Y77218182D01*
X18838314Y76919686D01*
X14266314Y72347686D01*
X13967818Y71900955D01*
X13863000Y71374000D01*
X5790000Y71374000D01*
X5790000Y89846069D01*
X6135498Y91583005D01*
X7079779Y92996221D01*
X8492997Y93940502D01*
X10229931Y94286000D01*
X80412139Y94286000D01*
X82081160Y93776984D01*
G36*
X49881652Y79755915D02*
X49590774Y79465544D01*
X49327300Y78831029D01*
X49326701Y78143986D01*
X49589067Y77509011D01*
X49774754Y77323000D01*
X48768000Y77323000D01*
X48241045Y77218182D01*
X47794314Y76919686D01*
X41698314Y70823686D01*
X41399818Y70376955D01*
X41295000Y69850000D01*
X41295000Y64482602D01*
X41255000Y64522672D01*
X41255000Y65278000D01*
X41150182Y65804955D01*
X40851686Y66251686D01*
X38557193Y68546179D01*
X38557299Y68668014D01*
X38294933Y69302989D01*
X38002348Y69596085D01*
X38293226Y69886456D01*
X38556700Y70520971D01*
X38557299Y71208014D01*
X38294933Y71842989D01*
X37809544Y72329226D01*
X37175029Y72592700D01*
X37115746Y72592752D01*
X36830000Y72878498D01*
X36815858Y72864356D01*
X36288356Y73391858D01*
X36302498Y73406000D01*
X36288356Y73420142D01*
X36815858Y73947644D01*
X36830000Y73933502D01*
X36844142Y73947644D01*
X37371644Y73420142D01*
X37357502Y73406000D01*
X38291157Y72472345D01*
X38651843Y72543407D01*
X38843263Y73306257D01*
X38728183Y74084292D01*
X38651843Y74268593D01*
X38291159Y74339655D01*
X38517331Y74565826D01*
X38514157Y74569000D01*
X39109153Y74569000D01*
X39321666Y74356116D01*
X40011105Y74069836D01*
X40757619Y74069185D01*
X41447558Y74354261D01*
X41975884Y74881666D01*
X42262164Y75571105D01*
X42262815Y76317619D01*
X41977739Y77007558D01*
X41876474Y77109000D01*
X46228000Y77109000D01*
X46754955Y77213818D01*
X47201686Y77512314D01*
X49663660Y79974288D01*
X49881652Y79755915D01*
X49881652Y79755915D01*
G37*
X49881652Y79755915D02*
X49590774Y79465544D01*
X49327300Y78831029D01*
X49326701Y78143986D01*
X49589067Y77509011D01*
X49774754Y77323000D01*
X48768000Y77323000D01*
X48241045Y77218182D01*
X47794314Y76919686D01*
X41698314Y70823686D01*
X41399818Y70376955D01*
X41295000Y69850000D01*
X41295000Y64482602D01*
X41255000Y64522672D01*
X41255000Y65278000D01*
X41150182Y65804955D01*
X40851686Y66251686D01*
X38557193Y68546179D01*
X38557299Y68668014D01*
X38294933Y69302989D01*
X38002348Y69596085D01*
X38293226Y69886456D01*
X38556700Y70520971D01*
X38557299Y71208014D01*
X38294933Y71842989D01*
X37809544Y72329226D01*
X37175029Y72592700D01*
X37115746Y72592752D01*
X36830000Y72878498D01*
X36815858Y72864356D01*
X36288356Y73391858D01*
X36302498Y73406000D01*
X36288356Y73420142D01*
X36815858Y73947644D01*
X36830000Y73933502D01*
X36844142Y73947644D01*
X37371644Y73420142D01*
X37357502Y73406000D01*
X38291157Y72472345D01*
X38651843Y72543407D01*
X38843263Y73306257D01*
X38728183Y74084292D01*
X38651843Y74268593D01*
X38291159Y74339655D01*
X38517331Y74565826D01*
X38514157Y74569000D01*
X39109153Y74569000D01*
X39321666Y74356116D01*
X40011105Y74069836D01*
X40757619Y74069185D01*
X41447558Y74354261D01*
X41975884Y74881666D01*
X42262164Y75571105D01*
X42262815Y76317619D01*
X41977739Y77007558D01*
X41876474Y77109000D01*
X46228000Y77109000D01*
X46754955Y77213818D01*
X47201686Y77512314D01*
X49663660Y79974288D01*
X49881652Y79755915D01*
M02*
