M48
;DRILL file {KiCad 4.0.2+dfsg1-stable} date Sex 21 Jul 2017 02:20:34 BRT
;FORMAT={-:-/ absolute / metric / decimal}
FMAT,2
METRIC,TZ
T1C0.800
T2C1.000
%
G90
G05
M71
T1
X15.748Y36.576
X15.748Y34.036
X15.748Y31.496
X21.59Y83.566
X21.59Y81.026
X21.59Y78.486
X21.59Y75.946
X21.59Y73.406
X21.59Y70.866
X21.59Y68.326
X21.59Y63.246
X21.59Y56.896
X24.09Y63.246
X24.09Y56.896
X25.4Y83.566
X25.4Y81.026
X25.4Y78.486
X25.4Y75.946
X25.4Y73.406
X25.4Y70.866
X25.4Y68.326
X26.162Y16.256
X26.162Y11.684
X28.702Y16.256
X28.702Y11.684
X30.774Y48.26
X31.242Y16.256
X31.242Y11.684
X32.438Y56.896
X33.02Y83.566
X33.02Y81.026
X33.02Y78.486
X33.02Y75.946
X33.02Y73.406
X33.02Y70.866
X33.02Y68.326
X33.274Y48.26
X36.83Y83.566
X36.83Y81.026
X36.83Y78.486
X36.83Y75.946
X36.83Y73.406
X36.83Y70.866
X36.83Y68.326
X37.084Y16.256
X37.084Y11.684
X37.338Y56.896
X37.378Y48.26
X39.624Y16.256
X39.624Y11.684
X39.878Y48.26
X42.164Y16.256
X42.164Y11.684
X48.006Y16.256
X48.006Y11.684
X50.546Y16.256
X50.546Y11.684
X51.054Y83.566
X51.054Y81.026
X51.054Y78.486
X51.054Y75.946
X51.054Y73.406
X51.054Y70.866
X51.054Y68.326
X51.054Y63.246
X51.054Y56.896
X53.086Y16.256
X53.086Y11.684
X53.554Y63.246
X53.554Y56.896
X54.864Y83.566
X54.864Y81.026
X54.864Y78.486
X54.864Y75.946
X54.864Y73.406
X54.864Y70.866
X54.864Y68.326
X56.428Y48.26
X58.674Y16.256
X58.674Y11.684
X58.928Y48.26
X61.214Y16.256
X61.214Y11.684
X61.394Y56.896
X62.484Y83.566
X62.484Y81.026
X62.484Y78.486
X62.484Y75.946
X62.484Y73.406
X62.484Y70.866
X62.484Y68.326
X62.992Y48.26
X63.754Y16.256
X63.754Y11.684
X65.492Y48.26
X66.294Y83.566
X66.294Y81.026
X66.294Y78.486
X66.294Y75.946
X66.294Y73.406
X66.294Y70.866
X66.294Y68.326
X66.294Y56.896
T2
X20.828Y41.656
X20.828Y39.116
X20.828Y36.576
X20.828Y34.036
X20.828Y31.496
X20.828Y28.956
X20.828Y23.876
X20.828Y21.336
X20.828Y18.796
X20.828Y16.256
X20.828Y13.716
X20.828Y11.176
X25.908Y39.116
X25.908Y28.956
X28.702Y39.116
X28.702Y28.956
X29.718Y63.246
X31.496Y39.116
X31.496Y28.956
X39.878Y63.246
X40.386Y86.106
X40.386Y75.946
X42.672Y39.116
X42.672Y28.956
X45.466Y39.116
X45.466Y28.956
X48.26Y39.116
X58.42Y39.116
X58.928Y63.246
X69.088Y63.246
X69.088Y50.8
X69.088Y48.26
X69.088Y45.72
X69.088Y43.18
X69.088Y40.64
X69.088Y38.1
X69.088Y35.56
X69.088Y33.02
X69.088Y28.956
X69.088Y26.416
X69.088Y23.876
X69.088Y21.336
X69.088Y18.796
X69.088Y16.256
X69.088Y13.716
X69.088Y11.176
X69.85Y86.106
X69.85Y75.946
T0
M30
